<svg width="100" height="100" viewBox="0 0 100 100" fill="none" xmlns="http://www.w3.org/2000/svg">
<path fill-rule="evenodd" clip-rule="evenodd" d="M62.344 98.4647C83.9884 92.9686 100 73.3541 100 50C100 22.3858 77.6142 0 50 0C22.3858 0 0 22.3858 0 50C0 75.3326 18.8394 96.2651 43.272 99.5512V37.4847C42.3472 38.7375 41.2806 39.9466 40.072 41.112C37.6827 43.3307 34.8667 45.2507 31.624 46.872C28.4667 48.408 24.9253 49.56 21 50.328V31.256C24.1573 30.744 27.4427 29.6773 30.856 28.056C34.2693 26.4347 37.3413 24.472 40.072 22.168C42.8027 19.7787 44.808 17.3893 46.088 15H62.344V98.4647Z" fill="#ED0D0D"/>
</svg>
