<svg width="131" height="92" viewBox="0 0 131 92" fill="none" xmlns="http://www.w3.org/2000/svg">
<path fill-rule="evenodd" clip-rule="evenodd" d="M3.09966 86.5537L3.52404 90.3757L7.32693 90.9465C8.58511 91.1353 10.2286 91.2733 12.1726 91.3785L12.1796 91.3788C14.2109 91.4858 16.2423 91.5393 18.2739 91.5393C19.2838 91.5393 20.407 91.5113 21.6371 91.4578C22.8068 91.4069 23.7799 91.3504 24.4276 91.2784L29.5213 90.712L28.8293 85.6339C28.6908 84.6178 28.4197 82.1159 28.0096 78.0139C27.6557 73.9124 27.2499 68.6348 26.7923 62.1737C26.3939 55.8415 26.0435 48.6878 25.7417 40.7094C25.9065 39.6881 26.3671 38.2614 27.3313 36.3719L27.3409 36.3531L27.3503 36.3341C28.3459 34.3417 29.6985 32.4011 31.4503 30.5167L31.4698 30.4957L31.489 30.4745C33.1949 28.5968 35.0914 27.0604 37.1847 25.8429C39.0713 24.7731 40.9545 24.2809 42.9036 24.2809C45.4358 24.2809 47.0695 25.0876 48.329 26.544C49.9811 28.4543 51.4072 31.2573 52.4008 35.2344L52.4041 35.2475C53.4405 39.3484 54.1446 44.0543 54.4871 49.3914L54.4886 49.4141L54.4902 49.4369C54.8899 54.8863 55.0907 60.548 55.0907 66.4232C55.0907 69.5699 55.0653 72.7165 55.0146 75.8632L55.0139 75.9035V75.9438C55.0139 79.0906 54.9886 82.3672 54.9378 85.7737L54.875 89.9857L59.0152 90.7626C60.1795 90.981 61.5919 91.094 63.1314 91.1494C64.7006 91.2558 66.2702 91.309 67.8402 91.309C69.2147 91.309 70.57 91.2554 71.9054 91.1472C73.1563 91.0966 74.1936 91.0447 75.0018 90.9908L79.669 90.6794V86.0019C79.669 83.1652 79.6943 80.3285 79.7449 77.4918L79.7449 77.4903C79.7961 74.5747 79.8472 71.7617 79.8983 69.0512L79.8985 69.0375C79.9989 62.8126 80.3248 56.7741 80.8747 50.9209C81.4103 45.2202 82.3745 40.2039 83.732 35.8407C85.0744 31.6863 86.8997 28.6705 89.0529 26.5483C90.8749 24.7968 93.3813 23.7434 97.0736 23.7434C98.8869 23.7434 100.153 24.1639 101.102 24.7926C102.066 25.4311 103.039 26.5087 103.885 28.3531C105.74 32.3957 106.882 38.8864 106.882 48.3034C106.882 53.1762 106.587 58.772 105.984 65.1049L105.982 65.1245L105.98 65.1441C105.425 71.5027 104.642 78.4359 103.628 85.947L102.917 91.2099L108.213 91.6024C109.621 91.7067 111.006 91.7858 112.369 91.8393C113.826 91.9454 115.224 92 116.562 92C117.942 92 119.32 91.9461 120.698 91.8384C122.079 91.7804 123.439 91.6682 124.779 91.5007L128.737 91.0056L129.134 87.0365C129.447 83.9046 129.732 80.3758 129.99 76.4549C130.3 72.462 130.533 68.3707 130.689 64.1814C130.896 59.9748 131 55.9868 131 52.2191C131 45.0764 130.581 38.4967 129.726 32.495C128.906 26.3309 127.409 20.823 125.145 16.0596C122.788 11.1006 119.406 7.10322 114.971 4.24998C110.369 1.28958 104.774 0 98.5314 0C91.6997 0 85.5673 1.60267 80.3993 5.07125L80.3875 5.07918L80.3758 5.08718C75.9198 8.11486 72.2999 11.9713 69.541 16.6087C68.8195 15.0758 67.9874 13.5983 67.0447 12.1784C64.9477 8.8879 62.203 6.21102 58.8576 4.1862C55.2414 1.96492 51.0134 0.998127 46.4331 0.998127C41.6535 0.998127 37.2569 1.7084 33.3599 3.28083C29.9884 4.64121 26.9914 6.3618 24.4497 8.49308C24.4136 7.54561 24.3767 6.76033 24.3384 6.14711L24.0456 1.45879H19.3481C18.2775 1.45879 17.0449 1.55454 15.7047 1.71305C14.3405 1.82452 12.9144 1.98767 11.4281 2.20013C9.91401 2.41658 8.46665 2.66211 7.08791 2.93804C5.71255 3.2133 4.46366 3.51669 3.41792 3.86551L0 5.00557V8.60861C0 12.5909 0.051661 17.2314 0.154398 22.5258L0.154417 22.5268C0.256963 27.7601 0.385108 33.2995 0.538824 39.1446C0.693058 45.0093 0.898712 50.8488 1.1558 56.6628C1.41257 62.4697 1.69523 67.9473 2.00389 73.0951C2.3141 78.2688 2.67836 82.7595 3.09966 86.5537Z" fill="#ED0D0D"/>
</svg>
