<svg width="133" height="136" viewBox="0 0 133 136" fill="none" xmlns="http://www.w3.org/2000/svg">
<path fill-rule="evenodd" clip-rule="evenodd" d="M73.8889 7.39184C73.8889 5.4314 73.1104 3.55126 71.7247 2.16502C70.339 0.778781 68.4597 0 66.5 0C64.5403 0 62.661 0.778781 61.2753 2.16502C59.8896 3.55126 59.1111 5.4314 59.1111 7.39184V128.608C59.1111 130.569 59.8896 132.449 61.2753 133.835C62.661 135.221 64.5403 136 66.5 136C68.4597 136 70.339 135.221 71.7247 133.835C73.1104 132.449 73.8889 130.569 73.8889 128.608V7.39184ZM36.9444 23.3089C38.9041 23.3089 40.7835 24.0877 42.1692 25.474C43.5549 26.8602 44.3333 28.7403 44.3333 30.7008V105.289C44.3333 107.25 43.5549 109.13 42.1692 110.516C40.7835 111.902 38.9041 112.681 36.9444 112.681C34.9848 112.681 33.1054 111.902 31.7197 110.516C30.334 109.13 29.5556 107.25 29.5556 105.289V30.7008C29.5556 28.7403 30.334 26.8602 31.7197 25.474C33.1054 24.0877 34.9848 23.3089 36.9444 23.3089ZM7.38889 46.6179C9.34854 46.6179 11.2279 47.3967 12.6136 48.7829C13.9993 50.1691 14.7778 52.0493 14.7778 54.0097V81.9903C14.7778 83.9507 13.9993 85.8309 12.6136 87.2171C11.2279 88.6033 9.34854 89.3821 7.38889 89.3821C5.42923 89.3821 3.54984 88.6033 2.16416 87.2171C0.77847 85.8309 2.92011e-08 83.9507 0 81.9903V54.0097C0 52.0493 0.77847 50.1691 2.16416 48.7829C3.54984 47.3967 5.42923 46.6179 7.38889 46.6179ZM96.0556 23.3089C98.0152 23.3089 99.8946 24.0877 101.28 25.474C102.666 26.8602 103.444 28.7403 103.444 30.7008V105.289C103.444 107.25 102.666 109.13 101.28 110.516C99.8946 111.902 98.0152 112.681 96.0556 112.681C94.0959 112.681 92.2165 111.902 90.8308 110.516C89.4451 109.13 88.6667 107.25 88.6667 105.289V30.7008C88.6667 28.7403 89.4451 26.8602 90.8308 25.474C92.2165 24.0877 94.0959 23.3089 96.0556 23.3089ZM133 54.0097C133 52.0493 132.222 50.1691 130.836 48.7829C129.45 47.3967 127.571 46.6179 125.611 46.6179C123.651 46.6179 121.772 47.3967 120.386 48.7829C119.001 50.1691 118.222 52.0493 118.222 54.0097V81.9903C118.222 83.9507 119.001 85.8309 120.386 87.2171C121.772 88.6033 123.651 89.3821 125.611 89.3821C127.571 89.3821 129.45 88.6033 130.836 87.2171C132.222 85.8309 133 83.9507 133 81.9903V54.0097Z" fill="black"/>
</svg>
