<svg width="316" height="315" viewBox="0 0 316 315" fill="none" xmlns="http://www.w3.org/2000/svg">
<path fill-rule="evenodd" clip-rule="evenodd" d="M197.007 311.148C265.404 293.781 316 231.799 316 158C316 70.739 245.261 0 158 0C70.739 0 0 70.739 0 158C0 238.051 59.5325 304.198 136.74 314.582V118.452C133.817 122.41 130.447 126.231 126.627 129.914C119.077 136.925 110.179 142.992 99.9318 148.116C89.9546 152.969 78.7641 156.61 66.36 159.036V98.769C76.3372 97.151 86.7188 93.7804 97.5049 88.657C108.291 83.5335 117.999 77.3315 126.627 70.0509C135.256 62.5006 141.593 54.9503 145.638 47.4H197.007V311.148Z" fill="#ED0D0D"/>
</svg>
