<svg width="579" height="103" viewBox="0 0 579 103" fill="none" xmlns="http://www.w3.org/2000/svg">
<path fill-rule="evenodd" clip-rule="evenodd" d="M396.792 101.057C418.436 95.5606 434.448 75.9461 434.448 52.592C434.448 24.9778 412.062 2.592 384.448 2.592C356.834 2.592 334.448 24.9778 334.448 52.592C334.448 77.9246 353.287 98.8571 377.72 102.143V40.0768C376.795 41.3295 375.729 42.5386 374.52 43.704C372.131 45.9227 369.315 47.8427 366.072 49.464C362.915 51 359.373 52.152 355.448 52.92V33.848C358.605 33.336 361.891 32.2693 365.304 30.648C368.717 29.0267 371.789 27.064 374.52 24.76C377.251 22.3707 379.256 19.9813 380.536 17.592H396.792V101.057Z" fill="#ED0D0D"/>
<path d="M306.202 95.872C299.461 95.872 293.487 94.4213 288.282 91.52C283.162 88.6187 279.151 84.608 276.25 79.488C273.349 74.368 271.898 68.5227 271.898 61.952C271.898 55.3813 273.349 49.536 276.25 44.416C279.151 39.296 283.162 35.2853 288.282 32.384C293.487 29.4827 299.461 28.032 306.202 28.032C311.834 28.032 316.911 29.0987 321.434 31.232C325.957 33.28 329.669 36.1387 332.57 39.808C335.471 43.4773 337.349 47.8293 338.202 52.864H319.77C318.831 49.6213 317.167 47.1893 314.778 45.568C312.474 43.9467 309.701 43.136 306.458 43.136C303.471 43.136 300.869 43.904 298.65 45.44C296.431 46.8907 294.725 49.024 293.53 51.84C292.335 54.656 291.738 58.0267 291.738 61.952C291.738 65.8773 292.335 69.248 293.53 72.064C294.725 74.88 296.431 77.056 298.65 78.592C300.869 80.0427 303.471 80.768 306.458 80.768C309.701 80.768 312.474 79.9573 314.778 78.336C317.167 76.7147 318.831 74.2827 319.77 71.04H338.202C337.349 76.0747 335.471 80.4267 332.57 84.096C329.669 87.7653 325.957 90.6667 321.434 92.8C316.911 94.848 311.834 95.872 306.202 95.872Z" fill="white"/>
<path d="M246.73 94.592V29.312H265.93V94.592H246.73ZM246.09 20.608V0H266.442V20.608H246.09Z" fill="white"/>
<path d="M212.932 95.872C203.46 95.872 195.951 93.952 190.404 90.112C184.857 86.272 181.828 80.9813 181.316 74.24H198.34C198.767 77.1413 200.217 79.36 202.692 80.896C205.167 82.3467 208.58 83.072 212.932 83.072C216.857 83.072 219.716 82.5173 221.508 81.408C223.3 80.2133 224.196 78.592 224.196 76.544C224.196 74.9227 223.641 73.6427 222.532 72.704C221.508 71.7653 219.588 70.9973 216.772 70.4L206.404 68.096C198.809 66.4747 193.22 64.0427 189.636 60.8C186.052 57.472 184.26 53.248 184.26 48.128C184.26 41.8133 186.649 36.9067 191.428 33.408C196.292 29.824 202.991 28.032 211.524 28.032C220.057 28.032 226.841 29.7813 231.876 33.28C236.911 36.6933 239.684 41.472 240.196 47.616H223.172C222.831 45.3973 221.636 43.7333 219.588 42.624C217.625 41.4293 214.852 40.832 211.268 40.832C207.94 40.832 205.423 41.344 203.716 42.368C202.095 43.3067 201.284 44.672 201.284 46.464C201.284 48 201.967 49.2373 203.332 50.176C204.697 51.0293 206.916 51.7973 209.988 52.48L221.636 55.04C228.121 56.4053 232.985 58.9653 236.228 62.72C239.556 66.3893 241.22 70.6987 241.22 75.648C241.22 82.048 238.745 87.04 233.796 90.624C228.932 94.1227 221.977 95.872 212.932 95.872Z" fill="white"/>
<path d="M135.149 95.56C130.626 95.56 126.744 94.5787 123.501 92.616C120.258 90.6533 117.784 88.008 116.077 84.68C114.37 81.352 113.517 77.5973 113.517 73.416V29H132.717V69.704C132.717 73.2027 133.57 75.848 135.277 77.64C137.069 79.3467 139.544 80.2 142.701 80.2C145.602 80.2 148.12 79.56 150.253 78.28C152.386 76.9147 154.093 75.0373 155.373 72.648C156.738 70.2587 157.421 67.528 157.421 64.456L159.085 79.944C156.952 84.552 153.837 88.3067 149.741 91.208C145.73 94.1093 140.866 95.56 135.149 95.56ZM157.805 94.28V79.048H157.421V29H176.493V94.28H157.805Z" fill="white"/>
<path d="M0 94.592V29.312H18.816V44.544H19.2V94.592H0ZM43.392 94.592V52.992C43.392 49.664 42.5387 47.232 40.832 45.696C39.1253 44.16 36.6933 43.392 33.536 43.392C30.8907 43.392 28.4587 43.9893 26.24 45.184C24.0213 46.3787 22.272 48.0853 20.992 50.304C19.7973 52.5227 19.2 55.168 19.2 58.24L17.536 43.648C19.584 38.8693 22.6133 35.072 26.624 32.256C30.6347 29.44 35.4987 28.032 41.216 28.032C47.872 28.032 53.0773 29.952 56.832 33.792C60.5867 37.5467 62.464 42.3253 62.464 48.128V94.592H43.392ZM86.656 94.592V52.992C86.656 49.664 85.8027 47.232 84.096 45.696C82.3893 44.16 80 43.392 76.928 43.392C74.1973 43.392 71.7227 43.9893 69.504 45.184C67.2853 46.3787 65.536 48.0853 64.256 50.304C63.0613 52.5227 62.464 55.168 62.464 58.24L59.52 43.648C61.6533 38.8693 64.8107 35.072 68.992 32.256C73.1733 29.44 78.208 28.032 84.096 28.032C91.0933 28.032 96.4267 29.9947 100.096 33.92C103.851 37.8453 105.728 42.9653 105.728 49.28V94.592H86.656Z" fill="white"/>
<path d="M545.999 95.84C538.831 95.84 532.559 94.432 527.183 91.616C521.892 88.7147 517.796 84.704 514.895 79.584C511.994 74.464 510.543 68.576 510.543 61.92C510.543 55.1787 511.994 49.2907 514.895 44.256C517.796 39.136 521.85 35.168 527.055 32.352C532.346 29.4507 538.447 28 545.359 28C552.1 28 557.903 29.3653 562.767 32.096C567.631 34.8267 571.386 38.624 574.031 43.488C576.762 48.352 578.127 54.0693 578.127 60.64C578.127 62.0053 578.084 63.2853 577.999 64.48C577.914 65.5893 577.786 66.656 577.615 67.68H521.807V55.008H562.383L559.055 57.312C559.055 52.0213 557.818 48.1387 555.343 45.664C552.868 43.104 549.455 41.824 545.103 41.824C540.154 41.824 536.314 43.5307 533.583 46.944C530.938 50.3573 529.615 55.4773 529.615 62.304C529.615 68.96 530.938 73.9093 533.583 77.152C536.314 80.3947 540.41 82.016 545.871 82.016C548.943 82.016 551.546 81.504 553.679 80.48C555.898 79.456 557.519 77.7493 558.543 75.36H576.591C574.458 81.76 570.831 86.7947 565.711 90.464C560.591 94.048 554.02 95.84 545.999 95.84Z" fill="white"/>
<path d="M441 94.56V29.28H459.816V44.512H460.2V94.56H441ZM485.928 94.56V53.856C485.928 50.3573 484.989 47.7547 483.112 46.048C481.32 44.256 478.717 43.36 475.304 43.36C472.403 43.36 469.8 44.0427 467.496 45.408C465.192 46.688 463.4 48.5227 462.12 50.912C460.84 53.216 460.2 55.9467 460.2 59.104L458.536 43.616C460.584 38.9227 463.656 35.168 467.752 32.352C471.848 29.4507 476.925 28 482.984 28C490.067 28 495.485 30.0053 499.24 34.016C503.08 38.0267 505 43.4027 505 50.144V94.56H485.928Z" fill="white"/>
</svg>
