<svg width="293" height="49" viewBox="0 0 293 49" fill="none" xmlns="http://www.w3.org/2000/svg">
<path d="M255.722 42.9273L255.722 42.9274L255.73 42.9334C257.221 44.0697 259.075 44.602 261.216 44.602C262.892 44.602 264.412 44.2317 265.743 43.4609C267.025 42.7186 268.106 41.7382 268.981 40.5275C269.408 39.9356 269.786 39.3141 270.114 38.6633C270.532 39.6735 271.077 40.603 271.749 41.4487L271.749 41.4488L271.757 41.4586C272.488 42.3548 273.412 43.0631 274.509 43.5888C275.652 44.1365 276.987 44.3885 278.479 44.3885C280.443 44.3885 282.192 43.8946 283.682 42.8705C285.119 41.8822 286.313 40.5468 287.272 38.8918C288.238 37.2603 289 35.3988 289.569 33.3166C290.154 31.2473 290.57 29.0493 290.819 26.7246C291.087 24.4099 291.222 22.0752 291.222 19.7205C291.222 18.9935 291.201 18.1887 291.16 17.3068C291.14 16.4087 291.109 15.5006 291.068 14.5826C291.027 13.6575 290.975 12.8301 290.913 12.1016L290.842 11.2789L290.021 11.1925C289.608 11.149 289.112 11.1176 288.537 11.0968C287.957 11.0557 287.43 11.0345 286.958 11.0345H286.956H286.953H286.951H286.948H286.946H286.943H286.941H286.938H286.936H286.933H286.931H286.928H286.926H286.923H286.921H286.918H286.916H286.913H286.911H286.908H286.906H286.903H286.901H286.898H286.896H286.893H286.891H286.888H286.885H286.883H286.88H286.878H286.875H286.873H286.87H286.868H286.865H286.863H286.86H286.858H286.855H286.853H286.85H286.848H286.845H286.843H286.84H286.838H286.835H286.833H286.83H286.828H286.825H286.823H286.82H286.818H286.815H286.813H286.81H286.808H286.805H286.803H286.8H286.798H286.795H286.793H286.79H286.787H286.785H286.782H286.78H286.777H286.775H286.772H286.77H286.767H286.765H286.762H286.76H286.757H286.755H286.752H286.75H286.747H286.745H286.742H286.74H286.737H286.735H286.732H286.73H286.727H286.724H286.722H286.719H286.717H286.714H286.712H286.709H286.707H286.704H286.702H286.699H286.697H286.694H286.692H286.689H286.687H286.684H286.682H286.679H286.676H286.674H286.671H286.669H286.666H286.664H286.661H286.659H286.656H286.654H286.651H286.649H286.646H286.644H286.641H286.639H286.636H286.633H286.631H286.628H286.626H286.623H286.621H286.618H286.616H286.613H286.611H286.608H286.606H286.603H286.601H286.598H286.595H286.593H286.59H286.588H286.585H286.583H286.58H286.578H286.575H286.573H286.57H286.568H286.565H286.562H286.56H286.557H286.555H286.552H286.55H286.547H286.545H286.542H286.54H286.537H286.535H286.532H286.529H286.527H286.524H286.522H286.519H286.517H286.514H286.512H286.509H286.507H286.504H286.501H286.499H286.496H286.494H286.491H286.489H286.486H286.484H286.481H286.479H286.476H286.473H286.471H286.468H286.466H286.463H286.461H286.458H286.456H286.453H286.451H286.448H286.445H286.443H286.44H286.438H286.435H286.433H286.43H286.428H286.425H286.423H286.42H286.417H286.415H286.412H286.41H286.407H286.405H286.402H286.4H286.397H286.394H286.392H286.389H286.387H286.384H286.382H286.379H286.377H286.374H286.371H286.369H286.366H286.364H286.361H286.359H286.356H286.354H286.351H286.348H286.346H286.343H286.341H286.338H286.336H286.333H286.331H286.328H286.325H286.323H286.32H286.318H286.315H286.313H286.31H286.307H286.305H286.302H286.3H286.297H286.295H286.292H286.29H286.287H286.284H286.282H286.279H286.277H286.274H286.272H286.269H286.266H286.264H286.261H286.259H286.256H286.254H286.251H286.248H286.246H286.243H286.241H286.238H286.236H286.233H286.231H286.228H286.225H286.223H286.22H286.218H286.215H286.213H286.21H286.207H286.205H286.202H286.2H286.197H286.195H286.192H286.189H286.187H286.184H286.182H286.179H286.177H286.174H286.171H286.169H286.166H286.164H286.161H286.158H286.156H286.153H286.151H286.148H286.146H286.143H286.14H286.138H286.135H286.133H286.13H286.128H286.125H286.122H286.12H286.117H286.115H286.112H286.11H286.107H286.104H286.102H286.099H286.097H286.094H286.091H286.089H286.086H286.084H286.081H286.079H286.076H286.073H286.071H286.068H286.066H286.063H286.06H286.058H286.055H286.053H286.05H286.048H286.045H286.042H286.04H286.037H286.035H286.032H286.029H286.027H286.024H286.022H286.019H286.016H286.014H286.011H286.009H286.006H286.004H286.001H285.998H285.996H285.993H285.991H285.988H285.985H285.983H285.98H285.978H285.975H285.972H285.97H285.967H285.965H285.962H285.96H285.957H285.954H285.952H285.949H285.947H285.944H285.941H285.939H285.936H285.934H285.931H285.928H285.926H285.923H285.921H285.918H285.915H285.913H285.91H285.908H285.905H285.902H285.9H285.897H285.895H285.892H285.889H285.887H285.884H285.882H285.879H285.876H285.874H285.871H285.869H285.866H285.863H285.861H285.858H285.856H285.853H285.85H285.848H285.845H285.843H285.84H285.837H285.835H285.832H285.83H285.827H285.824H285.822H285.819H285.817H285.814H285.811H285.809H285.806H285.803H285.801H285.798H285.796H285.793H285.79H285.788H285.785H285.783H285.78H285.777H285.775H285.772H285.77H285.767H285.764H285.762H285.759H285.757H285.754H285.751H285.749H285.746H285.743H285.741H285.738H285.736H285.733H285.73H285.728H285.725H285.723H285.72H285.717H285.715H285.712H285.709H285.707H285.704H285.702H285.699H285.696H285.694H285.691H285.689H285.686H285.683H285.681H285.678H285.675H285.673H285.67H285.668H285.665H285.662H285.66H285.657H285.655H285.652H285.649H285.647C285.204 11.0345 284.789 11.045 284.402 11.0665L283.429 11.1206L283.458 12.0944C283.478 12.7832 283.498 13.564 283.518 14.4367L283.518 14.4373C283.539 15.2835 283.549 16.1194 283.549 16.945V16.9572L283.549 16.9694C283.569 17.7973 283.579 18.5209 283.579 19.141C283.579 21.6123 283.469 23.9896 283.248 26.2734L283.248 26.2734L283.248 26.2813C283.048 28.5331 282.711 30.5271 282.241 32.269C281.775 33.9775 281.172 35.2546 280.468 36.1528L280.468 36.1528L280.46 36.1625C279.833 36.9825 279.128 37.3255 278.296 37.3255C277.431 37.3255 276.777 36.9926 276.25 36.2591C275.669 35.4016 275.199 34.1422 274.888 32.415C274.573 30.641 274.363 28.543 274.263 26.1147C274.162 23.6703 274.111 21.0003 274.111 18.104V18.0983V18.0926V18.0868V18.0811V18.0754V18.0697V18.064V18.0582V18.0525V18.0468V18.0411V18.0354V18.0296V18.0239V18.0182V18.0125V18.0068V18.0011V17.9953V17.9896V17.9839V17.9782V17.9725V17.9667V17.961V17.9553V17.9496V17.9439V17.9381V17.9324V17.9267V17.921V17.9153V17.9096V17.9038V17.8981V17.8924V17.8867V17.881V17.8752V17.8695V17.8638V17.8581V17.8524V17.8466V17.8409V17.8352V17.8295V17.8238V17.8181V17.8123V17.8066V17.8009V17.7952V17.7895V17.7837V17.778V17.7723V17.7666V17.7609V17.7551V17.7494V17.7437V17.738V17.7323V17.7266V17.7208V17.7151V17.7094V17.7037V17.698V17.6922V17.6865V17.6808V17.6751V17.6694V17.6636V17.6579V17.6522V17.6465V17.6408V17.6351V17.6293V17.6236V17.6179V17.6122V17.6065V17.6007V17.595V17.5893V17.5836V17.5779V17.5721V17.5664V17.5607V17.555V17.5493V17.5436V17.5378V17.5321V17.5264V17.5207V17.515V17.5092V17.5035V17.4978V17.4921V17.4864V17.4806V17.4749V17.4692V17.4635V17.4578V17.4521V17.4463V17.4406V17.4349V17.4292V17.4235V17.4177V17.412V17.4063V17.4006V17.3949V17.3891V17.3834V17.3777V17.372V17.3663V17.3606V17.3548V17.3491V17.3434V17.3377V17.332V17.3262V17.3205V17.3148V17.3091V17.3034V17.2976V17.2919V17.2862V17.2805V17.2748V17.2691V17.2633V17.2576V17.2519V17.2462V17.2405V17.2347V17.229V17.2233V17.2176V17.2119V17.2061V17.2004V17.1947V17.189V17.1833V17.1776V17.1718V17.1661V17.1604V17.1547V17.149V17.1432V17.1375V17.1318V17.1261V17.1204V17.1146V17.1089V17.1032V17.0975V17.0918V17.0861V17.0803V17.0746V17.0689V17.0632V17.0575V17.0517V17.046V17.0403V17.0346V17.0289V17.0231V17.0174V17.0117V17.006V17.0003V16.9946V16.9888V16.9831V16.9774V16.9717V16.966V16.9602V16.9545V16.9488V16.9431V16.9374V16.9316V16.9259V16.9202V16.9145V16.9088V16.9031V16.8973V16.8916V16.8859V16.8802V16.8745V16.8687V16.863V16.8573V16.8516V16.8459V16.8401V16.8344V16.8287V16.823V16.8173V16.8116V16.8058V16.8001V16.7944V16.7887V16.783V16.7772V16.7715V16.7658V16.7601V16.7544V16.7486V16.7429V16.7372V16.7315V16.7258V16.7201V16.7143V16.7086V16.7029V16.6972V16.6915V16.6857V16.68V16.6743V16.6686V16.6629V16.6571V16.6514V16.6457V16.64V16.6343V16.6286V16.6228V16.6171V16.6114V16.6057V16.6V16.5942V16.5885V16.5828V16.5771V16.5714V16.5656V16.5599V16.5542V16.5485V16.5428V16.5371V16.5313V16.5256V16.5199V16.5142V16.5085V16.5027V16.497V16.4913V16.4856V16.4799V16.4741V16.4684V16.4627V16.457V16.4513V16.4456V16.4398V16.4341V16.4284V16.4227V16.417V16.4112V16.4055V16.3998V16.3941V16.3884V16.3826V16.3769V16.3712V16.3655V16.3598V16.3541V16.3483V16.3426V16.3369V16.3312V16.3255V16.3197V16.314V16.3083V16.3026V16.2969V16.2911V16.2854V16.2797V16.274V16.2683V16.2626V16.2568V16.2511V16.2454V16.2397V16.234V16.2282V16.2225V16.2168V16.2111V16.2054V16.1996V16.1939V16.1882V16.1825V16.1768V16.1711V16.1653V16.1596V16.1539V16.1482V16.1425V16.1367V16.131V16.1253V16.1196V16.1139V16.1081V16.1024V16.0967V16.091V16.0853V16.0796V16.0738V16.0681V16.0624V16.0567V16.051V16.0452V16.0395V16.0338V16.0281V16.0224V16.0166V16.0109V16.0052V15.9995V15.9938V15.9881V15.9823V15.9766V15.9709V15.9652V15.9595V15.9537V15.948V15.9423V15.9366V15.9309V15.9251V15.9194V15.9137V15.908V15.9023V15.8966V15.8908V15.8851V15.8794V15.8737V15.868V15.8622V15.8565V15.8508V15.8451V15.8394V15.8336V15.8279V15.8222V15.8165V15.8108V15.8051V15.7993V15.7936V15.7879V15.7822V15.7765V15.7707V15.765V15.7593V15.7536V15.7479V15.7421V15.7364V15.7307V15.725V15.7193V15.7136V15.7078V15.7021V15.6964V15.6907V15.685V15.6792V15.6735V15.6678V15.6621V15.6564V15.6506V15.6449V15.6392V15.6335V15.6278V15.6221V15.6163V15.6106V15.6049V15.5992V15.5935V15.5877V15.582V15.5763V15.5706V15.5649V15.5591V15.5534V15.5477V15.542V15.5363V15.5306V15.5248V15.5191V15.5134V15.5077V15.502V15.4962V15.4905V15.4848V15.4791V15.4734V15.4676V15.4619V15.4562V15.4505V15.4448V15.4391V15.4333V15.4276V15.4219V15.4162V15.4105V15.4047V15.399V15.3933V15.3876V15.3819V15.3761V15.3704V15.3647V15.359V15.3533V15.3476V15.3418V15.3361V15.3304V15.3247V15.319V15.3132V15.3075V15.3018V15.2961V15.2904V15.2846V15.2789V15.2732V15.2675V15.2618V15.2561V15.2503V15.2446V15.2389V15.2332V15.2275V15.2217V15.216V15.2103V15.2046V15.1989V15.1931V15.1874V15.1817V15.176V15.1703V15.1646V15.1588V15.1531V15.1474V15.1417V15.136V15.1302V15.1245V15.1188V15.1131V15.1073V15.1016V15.0959V15.0902V15.0845V15.0787V15.073V15.0673V15.0616V15.0558V15.0501V15.0444V15.0387V15.0329V15.0272V15.0215V15.0158V15.01V15.0043V14.9986V14.9929V14.9871V14.9814V14.9757V14.97V14.9642V14.9585V14.9528V14.9471V14.9413V14.9356V14.9299V14.9241V14.9184V14.9127V14.907V14.9012V14.8955V14.8898V14.884V14.8783V14.8726V14.8668V14.8611V14.8554V14.8496V14.8439V14.8382V14.8324V14.8267V14.821V14.8152V14.8095V14.8038V14.798V14.7923V14.7866V14.7808V14.7751V14.7694V14.7636V14.7579V14.7522V14.7464V14.7407V14.735V14.7292V14.7235V14.7177V14.712V14.7063V14.7005V14.6948V14.6891V14.6833V14.6776V14.6718V14.6661V14.6604V14.6546V14.6489V14.6431V14.6374V14.6317V14.6259V14.6202V14.6144V14.6087V14.603V14.5972V14.5915V14.5857V14.58V14.5742V14.5685V14.5628V14.557V14.5513V14.5455V14.5398V14.534V14.5283V14.5225V14.5168V14.511V14.5053V14.4996V14.4938V14.4881V14.4823V14.4766V14.4708V14.4651V14.4593V14.4536V14.4478V14.4421V14.4363V14.4306V14.4248V14.4191V14.4133V14.4076V14.4018V14.3961V14.3903V14.3846V14.3788V14.3731V14.3673V14.3616V14.3558V14.3501V14.3443V14.3386V14.3328V14.3271V14.3213V14.3156V14.3098V14.3041V14.2983V14.2925V14.2868V14.281V14.2753V14.2695V14.2638V14.258V14.2523V14.2465V14.2407V14.235V14.2292V14.2235V14.2177V14.212V14.2062V14.2004V14.1947V14.1889V14.1832V14.1774V14.1716V14.1659V14.1601V14.1544V14.1486V14.1428V14.1371V14.1313V14.1256V14.1198V14.114V14.1083V14.1025V14.0968V14.091V14.0852V14.0795V14.0737V14.0679V14.0622V14.0564V14.0506V14.0449V14.0391V14.0334V14.0276V14.0218V14.0161V14.0103V14.0045V13.9988V13.993V13.9872V13.9815V13.9757V13.9699V13.9642V13.9584V13.9526V13.9468V13.9411V13.9353V13.9295V13.9238V13.918V13.9122V13.9065V13.9007V13.8949V13.8892V13.8834V13.8776V13.8718V13.8661V13.8603V13.8545V13.8488V13.843V13.8372V13.8314V13.8257V13.8199V13.8141V13.8083V13.8026V13.7968V13.791V13.7852V13.7795V13.7737V13.7679V13.7621V13.7564V13.7506V13.7448V13.739V13.7333V13.7275V13.7217V13.7159V13.7101V13.7044V13.6986V13.6928V13.687V13.6813V13.6755V13.6697V13.6639V13.6581V13.6524V13.6466V13.6408V13.635V13.6292V13.6234V13.6177V13.6119V13.6061V13.6003V13.5945V13.5888V13.583V13.5772V13.5714V13.5656V13.5598V13.5541V13.5483V13.5425V13.5367V13.5309V13.5251V13.5193V13.5136V13.5078V13.502V13.4962V13.4904V13.4846V13.4788V13.473V13.4673V13.4615V13.4557V13.4499V13.4441V13.4383V13.4325V13.4267V13.4209V13.4152V13.4094V13.4036V13.3978V13.392V13.3862V13.3804V13.3746V13.3688V13.363V13.3572V13.3515V13.3457V13.3399V13.3341V13.3283V13.3225V13.3167V13.3109V13.3051V13.2993V13.2935V13.2877V13.2819V13.2761V13.2703V13.2645V13.2587V13.2529V13.2472V13.2414V13.2356V13.2298V13.224V13.2182V13.2124V13.2066V13.2008V13.195V13.1892V13.1834V13.1776V13.1718V13.166V13.1602V13.1544V13.1486V13.1428V13.137V13.1312V13.1254V13.1196V13.1138V13.108V13.1022V13.0964V13.0906V13.0848V13.079V13.0731V13.0673V13.0615V13.0557V13.0499V13.0441V13.0383V13.0325V13.0267V13.0209V13.0151V13.0093V13.0035V12.9977V12.9919V12.9861V12.9803V12.9745V12.9686V12.9628V12.957V12.9512V12.9454V12.9396V12.9338V12.928V12.9222V12.9164V12.9106V12.9047V12.8989V12.8931V12.8873V12.8815V12.8757V12.8699V12.8641V12.8583V12.8524V12.8466V12.8408V12.835V12.8292V12.8234V12.8176V12.8117V12.8059V12.8001V12.7943V12.7885V12.7827V12.7769V12.771V12.7652V12.7594V12.7536V12.7478V12.742V12.7361V12.7303V12.7245V12.7187V12.7129V12.7071V12.7012V12.6954V12.6896V12.6838V12.678V12.6721V12.6663V12.6605V12.6547V12.6489V12.643V12.6372V12.6314V12.6256V12.6198V12.6139V12.6081V12.6023V12.5965V12.5906V12.5848V12.579V12.5732V12.5673V12.5615V12.5557V12.5499V12.544V12.5382V12.5324V12.5266V12.5207V12.5149V12.5091V12.5033V12.4974V12.4916V12.4858V12.48V12.4741V12.4683V12.4625V12.4566V12.4508V12.445V12.4392V12.4333V12.4275V12.4217V12.4158V12.41V12.4042V12.3984V12.3925V12.3867V12.3809V12.375V12.3692V12.3634V12.3575V12.3517V12.3459V12.34V12.3342V12.3284V12.3225V12.3167V12.3109V12.305V12.2992V12.2934V12.2875V12.2817V12.2759V12.27V12.2642V12.2584V12.2525V12.2467V12.2408V12.235V12.2292V12.2233V12.2175V11.3125L273.211 11.2225C272.759 11.1773 272.178 11.1568 271.479 11.1565C270.788 11.1363 270.096 11.1261 269.405 11.126C268.716 11.1058 268.15 11.0955 267.713 11.0955H266.675L266.713 12.1325C266.754 13.2215 266.784 14.4542 266.804 15.8312C266.825 17.2103 266.835 18.4253 266.835 19.4765C266.835 22.0097 266.724 24.3649 266.504 26.5433C266.285 28.6937 265.939 30.5743 265.471 32.1917L265.471 32.1917L265.469 32.1994C265.024 33.7856 264.453 34.9592 263.794 35.7753L263.792 35.7772C263.205 36.5071 262.564 36.807 261.826 36.807C260.994 36.807 260.34 36.4638 259.797 35.6449C259.21 34.7264 258.755 33.4136 258.484 31.6464C258.208 29.857 258.068 27.8149 258.068 25.5155C258.068 23.4436 258.139 21.2477 258.28 18.9272L258.28 18.9267C258.421 16.5849 258.623 14.2223 258.886 11.839L258.999 10.8097L257.966 10.7323C257.137 10.6701 256.157 10.6186 255.03 10.5777C253.905 10.5367 252.936 10.516 252.127 10.516H251.224L251.132 11.4147C250.908 13.6213 250.713 15.8784 250.55 18.1859C250.386 20.5059 250.304 22.7763 250.304 24.997C250.304 27.5557 250.448 29.9771 250.739 32.2602L250.739 32.2603L250.74 32.2691C251.054 34.5764 251.593 36.6472 252.365 38.4715L252.368 38.4781L252.371 38.4846C253.18 40.3214 254.292 41.8149 255.722 42.9273Z" fill="#ED0D0D" stroke="#ED0D0D" stroke-width="2"/>
<path d="M216.239 18.1126L216.239 18.1126L216.236 18.1183C214.838 20.7188 214.165 23.8602 214.165 27.498C214.165 33.2078 215.466 37.7447 218.218 40.9583C221.012 44.2215 225.273 45.761 230.781 45.761C233.989 45.761 236.793 45.1018 239.151 43.7352L239.154 43.7338C241.517 42.3555 243.328 40.4335 244.574 37.9861L244.575 37.9829C245.818 35.5193 246.421 32.6546 246.421 29.4195C246.421 25.7067 245.879 22.4088 244.769 19.5458C243.67 16.639 241.96 14.3359 239.627 12.684C237.264 10.9906 234.311 10.1805 230.842 10.1805C227.574 10.1805 224.662 10.8391 222.136 12.1896L222.136 12.1895L222.132 12.1913C219.617 13.5473 217.65 15.5299 216.239 18.1126ZM238.298 32.1948L238.296 32.2018L238.295 32.209C237.978 33.3802 237.489 34.43 236.829 35.3658C236.195 36.2456 235.364 36.9568 234.317 37.4983C233.31 38.0192 232.062 38.3015 230.537 38.3015C227.738 38.3015 225.721 37.3198 224.329 35.4171C222.879 33.4348 222.112 30.822 222.112 27.498C222.112 25.3443 222.442 23.4715 223.078 21.8618C223.725 20.2739 224.669 19.0621 225.9 18.1873C227.102 17.334 228.627 16.8775 230.537 16.8775C232.473 16.8775 233.975 17.3765 235.125 18.3031L235.125 18.3031L235.132 18.3088C236.323 19.2506 237.24 20.5762 237.859 22.3392C238.486 24.1249 238.809 26.1854 238.809 28.535C238.809 29.7848 238.639 31.0038 238.298 32.1948Z" fill="#ED0D0D" stroke="#ED0D0D" stroke-width="2"/>
<mask id="path-3-outside-1_126_92" maskUnits="userSpaceOnUse" x="171.921" y="9.48547" width="37" height="37" fill="black">
<rect fill="white" x="171.921" y="9.48547" width="37" height="37"/>
<path fill-rule="evenodd" clip-rule="evenodd" d="M182.334 28.05C182.408 26.2532 182.469 24.3612 182.516 22.374C183.227 21.7233 184.153 20.9811 185.291 20.1475C186.45 19.3138 187.802 18.592 189.348 17.982C190.893 17.372 192.591 17.067 194.441 17.067C196.231 17.067 197.583 17.5041 198.498 18.3785C199.433 19.2528 200.053 20.483 200.358 22.069C200.684 23.655 200.846 25.5053 200.846 27.62C200.846 29.267 200.775 31.0258 200.633 32.8965C200.49 34.7468 200.307 36.6175 200.084 38.5085C199.86 40.3791 199.616 42.1786 199.352 43.907C199.697 43.968 200.165 44.0086 200.755 44.029C201.344 44.0493 201.965 44.0595 202.615 44.0595C203.266 44.0595 203.876 44.0391 204.445 43.9985C205.035 43.9781 205.472 43.9476 205.757 43.907C206.001 41.894 206.194 39.9115 206.336 37.9595C206.499 36.0075 206.611 34.1571 206.672 32.4085C206.753 30.6598 206.794 29.0941 206.794 27.7115C206.794 24.1531 206.499 21.1743 205.909 18.775C205.34 16.3756 204.252 14.566 202.646 13.346C201.039 12.1056 198.691 11.4855 195.6 11.4855C193.872 11.4855 192.154 11.7905 190.446 12.4005C188.738 12.9901 187.192 13.7221 185.81 14.5965C184.427 15.4708 183.36 16.3248 182.607 17.1585V15.2675C182.628 14.5558 182.628 13.9051 182.607 13.3155C182.607 12.7258 182.597 12.3191 182.577 12.0955C182.231 12.0345 181.824 11.9938 181.357 11.9735C180.909 11.9531 180.462 11.943 180.015 11.943C179.303 11.943 178.602 11.9735 177.91 12.0345C177.239 12.0751 176.66 12.1361 176.172 12.2175C176.172 13.0394 176.17 13.8437 176.168 14.6303L182.334 28.05ZM182.209 30.7436L175.162 41.8174C175.087 42.5816 175.007 43.3188 174.921 44.029C175.226 44.0696 175.704 44.1001 176.355 44.1205C177.005 44.1611 177.585 44.1916 178.093 44.212C178.642 44.2323 179.191 44.2323 179.74 44.212H181.143C181.286 43.053 181.448 41.4161 181.631 39.3015C181.814 37.1868 181.987 34.696 182.15 31.829C182.17 31.4716 182.19 31.1098 182.209 30.7436Z"/>
</mask>
<path fill-rule="evenodd" clip-rule="evenodd" d="M182.334 28.05C182.408 26.2532 182.469 24.3612 182.516 22.374C183.227 21.7233 184.153 20.9811 185.291 20.1475C186.45 19.3138 187.802 18.592 189.348 17.982C190.893 17.372 192.591 17.067 194.441 17.067C196.231 17.067 197.583 17.5041 198.498 18.3785C199.433 19.2528 200.053 20.483 200.358 22.069C200.684 23.655 200.846 25.5053 200.846 27.62C200.846 29.267 200.775 31.0258 200.633 32.8965C200.49 34.7468 200.307 36.6175 200.084 38.5085C199.86 40.3791 199.616 42.1786 199.352 43.907C199.697 43.968 200.165 44.0086 200.755 44.029C201.344 44.0493 201.965 44.0595 202.615 44.0595C203.266 44.0595 203.876 44.0391 204.445 43.9985C205.035 43.9781 205.472 43.9476 205.757 43.907C206.001 41.894 206.194 39.9115 206.336 37.9595C206.499 36.0075 206.611 34.1571 206.672 32.4085C206.753 30.6598 206.794 29.0941 206.794 27.7115C206.794 24.1531 206.499 21.1743 205.909 18.775C205.34 16.3756 204.252 14.566 202.646 13.346C201.039 12.1056 198.691 11.4855 195.6 11.4855C193.872 11.4855 192.154 11.7905 190.446 12.4005C188.738 12.9901 187.192 13.7221 185.81 14.5965C184.427 15.4708 183.36 16.3248 182.607 17.1585V15.2675C182.628 14.5558 182.628 13.9051 182.607 13.3155C182.607 12.7258 182.597 12.3191 182.577 12.0955C182.231 12.0345 181.824 11.9938 181.357 11.9735C180.909 11.9531 180.462 11.943 180.015 11.943C179.303 11.943 178.602 11.9735 177.91 12.0345C177.239 12.0751 176.66 12.1361 176.172 12.2175C176.172 13.0394 176.17 13.8437 176.168 14.6303L182.334 28.05ZM182.209 30.7436L175.162 41.8174C175.087 42.5816 175.007 43.3188 174.921 44.029C175.226 44.0696 175.704 44.1001 176.355 44.1205C177.005 44.1611 177.585 44.1916 178.093 44.212C178.642 44.2323 179.191 44.2323 179.74 44.212H181.143C181.286 43.053 181.448 41.4161 181.631 39.3015C181.814 37.1868 181.987 34.696 182.15 31.829C182.17 31.4716 182.19 31.1098 182.209 30.7436Z" fill="#ED0D0D"/>
<path d="M182.516 22.374L181.166 20.8979L180.536 21.4737L180.516 22.3267L182.516 22.374ZM182.334 28.05L180.516 28.885L184.332 28.1325L182.334 28.05ZM185.291 20.1475L184.123 18.5239L184.116 18.5288L184.11 18.5337L185.291 20.1475ZM189.348 17.982L188.613 16.1217L188.613 16.1217L189.348 17.982ZM198.498 18.3785L197.116 19.8245L197.124 19.832L197.132 19.8395L198.498 18.3785ZM200.358 22.069L198.394 22.4467L198.396 22.4588L198.399 22.4709L200.358 22.069ZM200.633 32.8965L202.627 33.0499L202.627 33.0482L200.633 32.8965ZM200.084 38.5085L202.07 38.7459L202.07 38.7434L200.084 38.5085ZM199.352 43.907L197.375 43.6046L197.079 45.5368L199.004 45.8765L199.352 43.907ZM200.755 44.029L200.824 42.0302L200.824 42.0302L200.755 44.029ZM204.445 43.9985L204.376 41.9997L204.339 42.0009L204.303 42.0036L204.445 43.9985ZM205.757 43.907L206.04 45.8869L207.558 45.67L207.742 44.1476L205.757 43.907ZM206.336 37.9595L204.343 37.7934L204.342 37.8037L204.341 37.814L206.336 37.9595ZM206.672 32.4085L204.674 32.3155L204.673 32.3271L204.673 32.3388L206.672 32.4085ZM205.909 18.775L203.963 19.2367L203.965 19.2445L203.967 19.2523L205.909 18.775ZM202.646 13.346L201.423 14.929L201.43 14.9339L201.436 14.9387L202.646 13.346ZM190.446 12.4005L191.098 14.291L191.108 14.2875L191.118 14.284L190.446 12.4005ZM185.81 14.5965L184.741 12.9061L184.741 12.9061L185.81 14.5965ZM182.607 17.1585H180.607V22.3599L184.092 18.4984L182.607 17.1585ZM182.607 15.2675L180.608 15.2104L180.607 15.2389V15.2675H182.607ZM182.607 13.3155H180.607V13.3499L180.608 13.3844L182.607 13.3155ZM182.577 12.0955L184.568 11.9144L184.43 10.3916L182.924 10.1259L182.577 12.0955ZM181.357 11.9735L181.266 13.9714L181.27 13.9716L181.357 11.9735ZM177.91 12.0345L178.031 14.0308L178.059 14.0291L178.086 14.0267L177.91 12.0345ZM176.172 12.2175L175.843 10.2447L174.172 10.5232V12.2175H176.172ZM176.168 14.6303L174.168 14.624L174.167 15.0648L174.351 15.4653L176.168 14.6303ZM175.162 41.8174L173.474 40.7436L173.218 41.1469L173.171 41.6227L175.162 41.8174ZM182.209 30.7436L184.206 30.8473L184.6 23.2608L180.521 29.6699L182.209 30.7436ZM174.921 44.029L172.936 43.7897L172.699 45.7504L174.657 46.0114L174.921 44.029ZM176.355 44.1205L176.479 42.1244L176.448 42.1224L176.417 42.1215L176.355 44.1205ZM178.093 44.212L178.013 46.2104L178.019 46.2106L178.093 44.212ZM179.74 44.212V42.212H179.703L179.666 42.2133L179.74 44.212ZM181.143 44.212V46.212H182.913L183.128 44.4558L181.143 44.212ZM181.631 39.3015L183.624 39.4739L183.624 39.4739L181.631 39.3015ZM182.15 31.829L180.153 31.7157L180.153 31.7157L182.15 31.829ZM180.516 22.3267C180.469 24.3033 180.409 26.1835 180.335 27.9674L184.332 28.1325C184.407 26.3228 184.468 24.419 184.515 22.4213L180.516 22.3267ZM184.11 18.5337C182.937 19.3926 181.95 20.1816 181.166 20.8979L183.865 23.85C184.505 23.265 185.368 22.5697 186.473 21.7612L184.11 18.5337ZM188.613 16.1217C186.939 16.7827 185.436 17.5795 184.123 18.5239L186.459 21.7711C187.464 21.0481 188.666 20.4012 190.082 19.8423L188.613 16.1217ZM194.441 15.067C192.368 15.067 190.418 15.4094 188.613 16.1217L190.082 19.8423C191.368 19.3345 192.814 19.067 194.441 19.067V15.067ZM199.879 16.9325C198.462 15.5781 196.531 15.067 194.441 15.067V19.067C195.93 19.067 196.703 19.4302 197.116 19.8245L199.879 16.9325ZM202.322 21.6913C201.958 19.7995 201.18 18.1484 199.863 16.9174L197.132 19.8395C197.686 20.3573 198.148 21.1665 198.394 22.4467L202.322 21.6913ZM202.846 27.62C202.846 25.4088 202.677 23.4184 202.317 21.6671L198.399 22.4709C198.69 23.8916 198.846 25.6018 198.846 27.62H202.846ZM202.627 33.0482C202.773 31.1338 202.846 29.324 202.846 27.62H198.846C198.846 29.21 198.777 30.9178 198.638 32.7447L202.627 33.0482ZM202.07 38.7434C202.297 36.826 202.482 34.9281 202.627 33.0499L198.639 32.7431C198.498 34.5655 198.318 36.409 198.098 38.2736L202.07 38.7434ZM201.329 44.2093C201.597 42.4578 201.843 40.6366 202.07 38.7459L198.098 38.271C197.877 40.1217 197.635 41.8994 197.375 43.6046L201.329 44.2093ZM200.824 42.0302C200.274 42.0112 199.912 41.9749 199.699 41.9374L199.004 45.8765C199.483 45.961 200.056 46.0061 200.686 46.0278L200.824 42.0302ZM202.615 42.0595C201.985 42.0595 201.388 42.0496 200.824 42.0302L200.686 46.0278C201.301 46.049 201.944 46.0595 202.615 46.0595V42.0595ZM204.303 42.0036C203.787 42.0404 203.225 42.0595 202.615 42.0595V46.0595C203.307 46.0595 203.965 46.0379 204.588 45.9934L204.303 42.0036ZM205.474 41.9271C205.301 41.9518 204.952 41.9798 204.376 41.9997L204.514 45.9973C205.117 45.9765 205.643 45.9435 206.04 45.8869L205.474 41.9271ZM204.341 37.814C204.202 39.7331 204.012 41.6838 203.771 43.6663L207.742 44.1476C207.99 42.1041 208.186 40.0899 208.331 38.1049L204.341 37.814ZM204.673 32.3388C204.613 34.0517 204.503 35.8697 204.343 37.7934L208.329 38.1256C208.494 36.1452 208.608 34.2626 208.67 32.4782L204.673 32.3388ZM204.794 27.7115C204.794 29.0563 204.754 30.5901 204.674 32.3155L208.67 32.5014C208.752 30.7295 208.794 29.132 208.794 27.7115H204.794ZM203.967 19.2523C204.506 21.4436 204.794 24.25 204.794 27.7115H208.794C208.794 24.0562 208.492 20.905 207.851 18.2977L203.967 19.2523ZM201.436 14.9387C202.596 15.82 203.476 17.1845 203.963 19.2367L207.855 18.3132C207.203 15.5668 205.908 13.3119 203.855 11.7533L201.436 14.9387ZM195.6 13.4855C198.468 13.4855 200.308 14.0679 201.423 14.929L203.868 11.763C201.771 10.1434 198.914 9.48547 195.6 9.48547V13.4855ZM191.118 14.284C192.621 13.7472 194.112 13.4855 195.6 13.4855V9.48547C193.631 9.48547 191.686 9.83373 189.773 10.517L191.118 14.284ZM186.879 16.2869C188.118 15.5032 189.521 14.8354 191.098 14.291L189.793 10.51C187.954 11.1449 186.267 11.9411 184.741 12.9061L186.879 16.2869ZM184.092 18.4984C184.681 17.8462 185.586 17.104 186.879 16.2869L184.741 12.9061C183.268 13.8377 182.038 14.8034 181.122 15.8185L184.092 18.4984ZM180.607 15.2675V17.1585H184.607V15.2675H180.607ZM180.608 13.3844C180.627 13.9246 180.627 14.5325 180.608 15.2104L184.606 15.3246C184.628 14.5792 184.628 13.8857 184.606 13.2465L180.608 13.3844ZM180.585 12.2765C180.596 12.3981 180.607 12.7198 180.607 13.3155H184.607C184.607 12.7318 184.598 12.2402 184.568 11.9144L180.585 12.2765ZM181.27 13.9716C181.677 13.9893 181.993 14.0233 182.229 14.065L182.924 10.1259C182.469 10.0456 181.972 9.99833 181.444 9.97536L181.27 13.9716ZM180.015 13.943C180.432 13.943 180.849 13.9525 181.266 13.9714L181.447 9.97554C180.97 9.95383 180.492 9.94297 180.015 9.94297V13.943ZM178.086 14.0267C178.717 13.971 179.36 13.943 180.015 13.943V9.94297C179.246 9.94297 178.486 9.97593 177.734 10.0422L178.086 14.0267ZM176.5 14.1903C176.9 14.1236 177.407 14.0686 178.031 14.0308L177.789 10.0381C177.071 10.0816 176.419 10.1487 175.843 10.2447L176.5 14.1903ZM178.168 14.6366C178.17 13.8478 178.172 13.0414 178.172 12.2175H174.172C174.172 13.0374 174.17 13.8396 174.168 14.624L178.168 14.6366ZM184.151 27.215L177.985 13.7953L174.351 15.4653L180.516 28.885L184.151 27.215ZM176.849 42.8911L183.896 31.8174L180.521 29.6699L173.474 40.7436L176.849 42.8911ZM176.907 44.2682C176.994 43.5422 177.076 42.7901 177.152 42.0121L173.171 41.6227C173.098 42.3731 173.019 43.0954 172.936 43.7897L176.907 44.2682ZM176.417 42.1215C175.777 42.1014 175.384 42.073 175.186 42.0465L174.657 46.0114C175.068 46.0663 175.631 46.0988 176.292 46.1195L176.417 42.1215ZM178.173 42.2136C177.683 42.194 177.119 42.1644 176.479 42.1244L176.23 46.1166C176.892 46.1579 177.486 46.1893 178.013 46.2104L178.173 42.2136ZM179.666 42.2133C179.166 42.2319 178.667 42.2319 178.167 42.2133L178.019 46.2106C178.617 46.2328 179.216 46.2328 179.814 46.2106L179.666 42.2133ZM181.143 42.212H179.74V46.212H181.143V42.212ZM179.639 39.129C179.456 41.2357 179.296 42.8447 179.158 43.9682L183.128 44.4558C183.275 43.2612 183.44 41.5966 183.624 39.4739L179.639 39.129ZM180.153 31.7157C179.991 34.5693 179.819 37.0395 179.639 39.129L183.624 39.4739C183.809 37.3341 183.983 34.8226 184.146 31.9423L180.153 31.7157ZM180.211 30.6399C180.192 31.003 180.173 31.3616 180.153 31.7157L184.146 31.9423C184.167 31.5816 184.187 31.2166 184.206 30.8473L180.211 30.6399Z" fill="#ED0D0D" mask="url(#path-3-outside-1_126_92)"/>
<path d="M168.84 37.4715C168.352 38.4678 167.528 39.4743 166.369 40.491C165.21 41.4873 163.767 42.3312 162.038 43.0225C160.31 43.6935 158.348 44.029 156.152 44.029C153.163 44.029 150.591 43.2665 148.435 41.7415C146.28 40.2165 144.623 38.1933 143.464 35.672C142.305 33.1303 141.725 30.3548 141.725 27.3455C141.725 24.0515 142.295 21.1337 143.433 18.592C144.572 16.0503 146.239 14.0577 148.435 12.614C150.631 11.15 153.315 10.418 156.487 10.418C158.378 10.418 160.086 10.7332 161.611 11.3635C163.136 11.9735 164.448 12.8072 165.546 13.8645C166.644 14.9015 167.508 16.03 168.138 17.25L163.899 20.0255C163.797 19.8018 163.604 19.4358 163.319 18.9275C163.055 18.4192 162.638 17.8905 162.069 17.3415C161.52 16.7722 160.788 16.2943 159.873 15.908C158.978 15.5217 157.85 15.3285 156.487 15.3285C154.596 15.3285 152.99 15.786 151.668 16.701C150.347 17.5957 149.34 18.8563 148.649 20.483C147.978 22.0893 147.642 23.9498 147.642 26.0645C147.642 28.0978 147.927 30.0193 148.496 31.829C149.086 33.6183 150.021 35.0823 151.302 36.221C152.583 37.3597 154.281 37.929 156.396 37.929C157.677 37.929 158.805 37.7257 159.781 37.319C160.757 36.9123 161.591 36.4345 162.282 35.8855C162.974 35.3365 163.512 34.8282 163.899 34.3605C164.305 33.8725 164.549 33.5472 164.631 33.3845L168.84 37.4715Z" fill="white"/>
<path d="M131.94 43.846C131.656 43.8663 131.208 43.8968 130.598 43.9375C129.988 43.9782 129.368 43.9985 128.738 43.9985C128.169 43.9985 127.62 43.9782 127.091 43.9375C126.562 43.8968 126.064 43.846 125.596 43.785C125.678 43.2563 125.779 42.1685 125.901 40.5215C126.023 38.8542 126.145 36.8818 126.267 34.6045C126.389 32.3272 126.501 29.9787 126.603 27.559C126.705 25.1393 126.786 22.8823 126.847 20.788C126.908 18.6733 126.938 16.9958 126.938 15.7555C127.162 15.7352 127.518 15.7148 128.006 15.6945C128.514 15.6742 129.063 15.6538 129.653 15.6335C130.243 15.5928 130.802 15.5623 131.33 15.542C131.859 15.5217 132.256 15.5115 132.52 15.5115C132.601 16.0605 132.652 16.9043 132.672 18.043C132.713 19.1613 132.733 20.4322 132.733 21.8555C132.733 23.7465 132.713 25.8103 132.672 28.047C132.652 30.2837 132.601 32.4797 132.52 34.635C132.439 36.7903 132.347 38.6915 132.245 40.3385C132.164 41.9855 132.062 43.1547 131.94 43.846ZM130.08 10.7535C128.697 10.7535 127.599 10.3367 126.786 9.503C125.973 8.66933 125.566 7.62217 125.566 6.3615C125.566 5.40583 125.769 4.61283 126.176 3.9825C126.583 3.33183 127.111 2.84383 127.762 2.5185C128.433 2.17283 129.155 2 129.927 2C131.168 2 132.164 2.43717 132.916 3.3115C133.689 4.18583 134.075 5.27367 134.075 6.575C134.075 7.71367 133.709 8.69983 132.977 9.5335C132.266 10.3468 131.3 10.7535 130.08 10.7535Z" fill="white"/>
<path d="M105.491 46.286C103.6 46.286 101.719 46.0216 99.8488 45.493C97.9781 44.9643 96.2701 44.2628 94.7248 43.3885C93.1998 42.4938 91.9798 41.5076 91.0648 40.43C91.2071 40.1453 91.4104 39.759 91.6748 39.271C91.9391 38.783 92.2441 38.2746 92.5898 37.746C92.9354 37.197 93.2811 36.6988 93.6268 36.2515C93.9724 35.7838 94.2774 35.428 94.5418 35.184C95.4161 36.16 96.4633 37.1055 97.6833 38.0205C98.9033 38.9151 100.215 39.6471 101.618 40.2165C103.021 40.7655 104.424 41.04 105.827 41.04C107.169 41.04 108.379 40.8468 109.456 40.4605C110.554 40.0538 111.418 39.4743 112.049 38.722C112.699 37.9696 113.025 37.0648 113.025 36.0075C113.025 34.7875 112.638 33.7403 111.866 32.866C111.093 31.9713 110.056 31.1885 108.755 30.5175C107.453 29.8261 106.02 29.1958 104.454 28.6265C102.563 27.9351 100.835 27.1828 99.2693 26.3695C97.7239 25.5358 96.4836 24.4988 95.5483 23.2585C94.6333 22.0181 94.1758 20.4423 94.1758 18.531C94.1758 16.579 94.7248 14.9523 95.8228 13.651C96.9411 12.3496 98.4051 11.3635 100.215 10.6925C102.045 10.0215 104.017 9.68597 106.132 9.68597C108.49 9.68597 110.656 9.99097 112.628 10.601C114.621 11.1906 116.146 11.882 117.203 12.675C117.122 13.0206 116.949 13.4781 116.685 14.0475C116.42 14.5965 116.115 15.1556 115.77 15.725C115.424 16.2943 115.068 16.8128 114.702 17.2805C113.726 16.6298 112.537 16.0096 111.134 15.42C109.731 14.8303 108.206 14.5355 106.559 14.5355C105.461 14.5355 104.403 14.6676 103.387 14.932C102.37 15.176 101.536 15.5928 100.886 16.1825C100.235 16.7721 99.9098 17.5753 99.9098 18.592C99.9098 19.4663 100.225 20.2491 100.855 20.9405C101.506 21.6318 102.38 22.252 103.478 22.801C104.576 23.3296 105.817 23.838 107.199 24.326C108.867 24.8953 110.412 25.5358 111.835 26.2475C113.259 26.9388 114.489 27.742 115.526 28.657C116.583 29.5516 117.407 30.5886 117.996 31.768C118.586 32.927 118.881 34.2385 118.881 35.7025C118.881 38.0408 118.281 39.9928 117.081 41.5585C115.882 43.1241 114.275 44.3035 112.262 45.0965C110.249 45.8895 107.992 46.286 105.491 46.286Z" fill="white"/>
<path d="M78.5679 13.3155C78.8729 13.2342 79.31 13.163 79.8794 13.102C80.469 13.041 81.0587 13.0105 81.6484 13.0105C82.1364 13.0105 82.665 13.0308 83.2344 13.0715C83.824 13.0918 84.2917 13.1325 84.6374 13.1935C84.9627 15.1658 85.2372 17.1788 85.4609 19.2325C85.6845 21.2862 85.7964 23.3093 85.7964 25.302C85.7964 28.0267 85.5625 30.5988 85.0949 33.0185C84.6272 35.4382 83.8545 37.5732 82.7769 39.4235C81.7195 41.2535 80.286 42.6972 78.4764 43.7545C76.687 44.8118 74.4605 45.3405 71.7969 45.3405C68.8892 45.3405 66.5 44.7712 64.6294 43.6325C62.7587 42.4735 61.3049 40.8773 60.2679 38.844C59.2309 36.7903 58.4989 34.4317 58.0719 31.768C57.6652 29.1043 57.4619 26.2577 57.4619 23.228C57.4619 21.3777 57.5229 19.507 57.6449 17.616C57.7669 15.725 57.899 13.8747 58.0414 12.065C58.4074 12.0447 58.8649 12.0345 59.4139 12.0345C59.9832 12.0345 60.4915 12.0447 60.9389 12.065C61.5692 12.1057 62.1894 12.1667 62.7994 12.248C63.4297 12.309 63.9482 12.4005 64.3549 12.5225C64.1515 14.3525 63.9889 16.1622 63.8669 17.9515C63.7449 19.7408 63.6839 21.4692 63.6839 23.1365C63.6839 26.7152 63.9787 29.7448 64.5684 32.2255C65.1784 34.7062 66.0832 36.587 67.2829 37.868C68.5029 39.149 70.0279 39.7895 71.8579 39.7895C73.5659 39.7895 74.9892 39.21 76.1279 38.051C77.2869 36.892 78.1612 35.2145 78.7509 33.0185C79.3405 30.8022 79.6354 28.108 79.6354 24.936C79.6354 23.1263 79.5439 21.2353 79.3609 19.263C79.1779 17.2703 78.9135 15.2878 78.5679 13.3155Z" fill="white"/>
<path d="M3.22 44.09C3.05733 42.626 2.915 40.8773 2.793 38.844C2.671 36.8106 2.55917 34.6451 2.4575 32.3475C2.35583 30.0498 2.2745 27.742 2.2135 25.424C2.1525 23.106 2.10167 20.91 2.061 18.836C2.02033 16.7416 2 14.9116 2 13.346C2.305 13.2443 2.71167 13.1426 3.22 13.041C3.72833 12.9393 4.26717 12.8478 4.8365 12.7665C5.40583 12.6851 5.94467 12.6241 6.453 12.5835C6.96133 12.5225 7.37817 12.492 7.7035 12.492C7.72383 12.8173 7.74417 13.2951 7.7645 13.9255C7.78483 14.5355 7.80517 15.1861 7.8255 15.8775C7.86617 16.5688 7.8865 17.1991 7.8865 17.7685C7.90683 18.3175 7.917 18.7038 7.917 18.9275C8.07967 18.5005 8.39483 17.921 8.8625 17.189C9.3505 16.457 10.0113 15.7148 10.845 14.9625C11.699 14.2101 12.7563 13.5798 14.017 13.0715C15.2777 12.5631 16.762 12.309 18.47 12.309C20.0153 12.309 21.3167 12.6343 22.374 13.285C23.4517 13.9356 24.326 14.7896 24.997 15.847C25.6883 16.884 26.2068 18.0125 26.5525 19.2325C26.7558 19.9441 26.8982 20.6558 26.9795 21.3675C27.0812 22.0791 27.1523 22.7705 27.193 23.4415C27.5387 21.5098 28.1893 19.6696 29.145 17.921C30.121 16.152 31.4325 14.7083 33.0795 13.59C34.7468 12.4716 36.7802 11.9125 39.1795 11.9125C41.3958 11.9125 43.2157 12.37 44.639 13.285C46.0623 14.2 47.1705 15.4911 47.9635 17.1585C48.7565 18.8258 49.3055 20.8083 49.6105 23.106C49.9358 25.3833 50.0985 27.9046 50.0985 30.67C50.0985 32.134 50.0578 33.6895 49.9765 35.3365C49.9155 36.9835 49.824 38.5898 49.702 40.1555C49.6003 41.7008 49.4885 43.0835 49.3665 44.3035C48.8785 44.3645 48.3803 44.4051 47.872 44.4255C47.3637 44.4661 46.8553 44.4865 46.347 44.4865C45.859 44.4865 45.3405 44.4661 44.7915 44.4255C44.2628 44.4051 43.724 44.3746 43.175 44.334C43.5817 41.3246 43.8968 38.539 44.1205 35.977C44.3645 33.415 44.4865 31.1275 44.4865 29.1145C44.4865 25.2715 44.029 22.3536 43.114 20.361C42.199 18.3683 40.6943 17.372 38.6 17.372C36.709 17.372 35.184 17.9311 34.025 19.0495C32.8863 20.1678 32.012 21.6725 31.402 23.5635C30.8123 25.4545 30.4057 27.5895 30.182 29.9685C29.9583 32.3475 29.8262 34.7976 29.7855 37.319C29.7652 38.3966 29.7448 39.515 29.7245 40.674C29.7042 41.8126 29.694 42.9513 29.694 44.09C29.389 44.1103 28.9823 44.1306 28.474 44.151C27.986 44.1916 27.4878 44.212 26.9795 44.212C26.3898 44.212 25.8002 44.1916 25.2105 44.151C24.6208 44.1306 24.1633 44.09 23.838 44.029C23.8583 42.6666 23.8685 41.3551 23.8685 40.0945C23.8888 38.8338 23.899 37.5731 23.899 36.3125C23.899 33.9335 23.8177 31.6358 23.655 29.4195C23.5127 27.2031 23.2178 25.2105 22.7705 23.4415C22.3232 21.6521 21.642 20.2288 20.727 19.1715C19.812 18.1141 18.592 17.5855 17.067 17.5855C15.9283 17.5855 14.8405 17.8803 13.8035 18.47C12.7868 19.0596 11.8718 19.8018 11.0585 20.6965C10.2452 21.5708 9.5945 22.496 9.1065 23.472C8.6185 24.4276 8.33383 25.2715 8.2525 26.0035C8.3745 29.2568 8.51683 32.1746 8.6795 34.757C8.8625 37.3393 9.02517 39.454 9.1675 41.101C9.33017 42.7276 9.442 43.7646 9.503 44.212C9.32 44.2323 8.99467 44.2526 8.527 44.273C8.05933 44.2933 7.6425 44.3035 7.2765 44.3035C6.50383 44.3035 5.73117 44.2831 4.9585 44.2425C4.20617 44.2018 3.62667 44.151 3.22 44.09Z" fill="white"/>
<path fill-rule="evenodd" clip-rule="evenodd" d="M133.639 45.7298L132.083 45.8409C131.793 45.8616 131.342 45.8924 130.732 45.9331C130.076 45.9768 129.411 45.9985 128.738 45.9985C128.121 45.9985 127.521 45.9765 126.938 45.9316C126.378 45.8886 125.844 45.8343 125.338 45.7682L123.309 45.5035L123.62 43.4809C123.687 43.0437 123.784 42.036 123.907 40.3746C124.028 38.7242 124.149 36.7657 124.27 34.4975C124.392 32.2283 124.503 29.8875 124.605 27.475C124.706 25.0629 124.787 22.8147 124.848 20.7303L126.67 25.9122C126.649 26.4525 126.626 27.0014 126.603 27.559C126.501 29.9787 126.389 32.3272 126.267 34.6045C126.145 36.8818 126.023 38.8542 125.901 40.5215C125.808 41.781 125.727 42.7135 125.657 43.319C125.636 43.5053 125.616 43.6606 125.596 43.785C126.064 43.846 126.562 43.8968 127.091 43.9375C127.256 43.9502 127.422 43.9609 127.591 43.9696C127.964 43.9889 128.346 43.9985 128.738 43.9985C129.368 43.9985 129.988 43.9782 130.598 43.9375C131.208 43.8968 131.656 43.8663 131.94 43.846C132.03 43.3412 132.108 42.5816 132.175 41.5673C132.2 41.1925 132.224 40.7829 132.245 40.3385C132.347 38.6915 132.439 36.7903 132.52 34.635C132.601 32.4797 132.652 30.2837 132.672 28.047C132.713 25.8103 132.733 23.7465 132.733 21.8555C132.733 20.4322 132.713 19.1613 132.672 18.043C132.652 16.9043 132.601 16.0605 132.52 15.5115C132.256 15.5115 131.859 15.5217 131.33 15.542C130.802 15.5623 130.243 15.5928 129.653 15.6335C129.063 15.6538 128.514 15.6742 128.006 15.6945C127.518 15.7148 127.162 15.7352 126.938 15.7555C126.938 16.9958 126.908 18.6733 126.847 20.788C126.8 22.3996 126.741 24.1075 126.67 25.9117L124.848 20.7298C124.909 18.6233 124.938 16.9678 124.938 15.7555V13.9291L126.757 13.7637C127.033 13.7386 127.431 13.7167 127.923 13.6962L127.926 13.6961C128.429 13.676 128.97 13.6559 129.55 13.6359C130.145 13.5951 130.713 13.5643 131.254 13.5435C131.788 13.5229 132.216 13.5115 132.52 13.5115H134.245L134.498 15.2184C134.599 15.8978 134.651 16.8421 134.672 17.9888C134.713 19.1322 134.733 20.4218 134.733 21.8555C134.733 23.758 134.713 25.8311 134.672 28.0743C134.652 30.3262 134.601 32.5383 134.519 34.7104C134.437 36.8718 134.345 38.7854 134.242 40.4494C134.161 42.093 134.056 43.3689 133.91 44.1936L133.639 45.7298ZM126.67 25.9117L132.175 41.5673L126.67 25.9122L126.67 25.9117ZM125.354 10.8996C124.145 9.6599 123.566 8.09677 123.566 6.3615C123.566 5.13073 123.828 3.93924 124.487 2.91067C125.075 1.97481 125.868 1.23211 126.857 0.735126C127.815 0.24363 128.848 0 129.927 0C131.696 0 133.261 0.651534 134.424 1.99696C135.551 3.27792 136.075 4.85066 136.075 6.575C136.075 8.18468 135.542 9.64305 134.481 10.8518C133.339 12.1569 131.793 12.7535 130.08 12.7535C128.267 12.7535 126.614 12.1906 125.354 10.8996ZM126.176 3.9825C125.769 4.61283 125.566 5.40583 125.566 6.3615C125.566 7.62217 125.973 8.66934 126.786 9.503C127.599 10.3367 128.697 10.7535 130.08 10.7535C131.3 10.7535 132.266 10.3468 132.977 9.5335C133.709 8.69983 134.075 7.71367 134.075 6.575C134.075 5.27367 133.689 4.18583 132.916 3.3115C132.164 2.43717 131.168 2 129.927 2C129.155 2 128.433 2.17283 127.762 2.5185C127.111 2.84383 126.583 3.33183 126.176 3.9825ZM167.688 41.9945L167.681 42.0011L167.673 42.0076C166.315 43.1749 164.671 44.1235 162.781 44.8795L162.772 44.8832L162.762 44.8869C160.765 45.6624 158.551 46.029 156.152 46.029C152.806 46.029 149.817 45.169 147.28 43.3742C144.823 41.6357 142.945 39.331 141.647 36.5073L141.644 36.5018C140.357 33.6799 139.725 30.6187 139.725 27.3455C139.725 23.8205 140.335 20.6158 141.608 17.7743C142.892 14.9085 144.8 12.6119 147.331 10.9463C149.916 9.22484 153.004 8.418 156.487 8.418C158.598 8.418 160.567 8.7696 162.363 9.51027C164.102 10.2071 165.632 11.1727 166.926 12.4171C168.168 13.5917 169.173 14.8956 169.915 16.332L170.743 17.935L163.043 22.9762L162.078 20.8531C162.014 20.7134 161.858 20.4121 161.574 19.9047L161.559 19.8777L161.545 19.8502C161.41 19.5916 161.149 19.2328 160.68 18.7812L160.654 18.7559L160.629 18.7298C160.309 18.3979 159.822 18.0577 159.095 17.7505L159.087 17.7473L159.08 17.7441C158.514 17.4998 157.678 17.3285 156.487 17.3285C154.929 17.3285 153.738 17.7006 152.807 18.3454L152.798 18.3513L152.789 18.3572C151.822 19.0122 151.049 19.951 150.492 21.2597C149.944 22.5743 149.642 24.1619 149.642 26.0645C149.642 27.9038 149.899 29.6174 150.4 31.2157C150.891 32.6982 151.642 33.847 152.631 34.7262C153.466 35.468 154.652 35.929 156.396 35.929C157.467 35.929 158.325 35.7589 159.012 35.4728C159.85 35.1236 160.517 34.7335 161.038 34.3193C161.665 33.8216 162.09 33.4103 162.357 33.0867L162.362 33.0801C162.554 32.8496 162.693 32.6752 162.787 32.5505C162.826 32.4983 162.852 32.4618 162.867 32.4391L164.064 30.0463L171.274 37.0478L170.636 38.3512C169.996 39.6582 168.974 40.8668 167.688 41.9945ZM148.496 31.829C147.927 30.0193 147.642 28.0978 147.642 26.0645C147.642 23.9498 147.978 22.0893 148.649 20.483C149.34 18.8563 150.347 17.5957 151.668 16.701C152.99 15.786 154.596 15.3285 156.487 15.3285C157.85 15.3285 158.978 15.5217 159.873 15.908C160.788 16.2943 161.52 16.7722 162.069 17.3415C162.401 17.662 162.682 17.9756 162.91 18.2823C163.073 18.5009 163.209 18.716 163.319 18.9275C163.604 19.4358 163.797 19.8018 163.899 20.0255L168.138 17.25C167.508 16.03 166.644 14.9015 165.546 13.8645C164.448 12.8072 163.136 11.9735 161.611 11.3635C160.086 10.7332 158.378 10.418 156.487 10.418C153.315 10.418 150.631 11.15 148.435 12.614C146.239 14.0577 144.572 16.0503 143.433 18.592C142.295 21.1337 141.725 24.0515 141.725 27.3455C141.725 30.3548 142.305 33.1303 143.464 35.672C144.623 38.1933 146.28 40.2165 148.435 41.7415C150.591 43.2665 153.163 44.029 156.152 44.029C158.348 44.029 160.31 43.6935 162.038 43.0225C163.767 42.3312 165.21 41.4873 166.369 40.491C167.528 39.4743 168.352 38.4678 168.84 37.4715L164.631 33.3845C164.549 33.5472 164.305 33.8725 163.899 34.3605C163.744 34.5474 163.566 34.7408 163.362 34.9407C163.057 35.241 162.697 35.5559 162.282 35.8855C161.591 36.4345 160.757 36.9123 159.781 37.319C158.805 37.7257 157.677 37.929 156.396 37.929C154.281 37.929 152.583 37.3597 151.302 36.221C150.021 35.0823 149.086 33.6183 148.496 31.829ZM93.7127 45.1135L93.7262 45.1215L93.7399 45.1292C95.4368 46.0893 97.2948 46.8495 99.3048 47.4176C101.347 47.9949 103.411 48.286 105.491 48.286C108.205 48.286 110.715 47.8554 112.995 46.9573C115.313 46.0444 117.227 44.6565 118.669 42.7749C120.183 40.7986 120.881 38.3962 120.881 35.7025C120.881 33.9658 120.53 32.3393 119.782 30.8673C119.068 29.4423 118.078 28.1999 116.834 27.1437C115.649 26.1015 114.272 25.2084 112.719 24.4535C111.214 23.7012 109.591 23.0298 107.855 22.4367C106.538 21.9714 105.375 21.4936 104.36 21.0056C103.428 20.5385 102.771 20.0539 102.323 19.5818C102.011 19.2353 101.91 18.9273 101.91 18.592C101.91 18.0419 102.064 17.8138 102.229 17.6644C102.587 17.3395 103.101 17.0574 103.853 16.8768L103.872 16.8724L103.89 16.8676C104.735 16.6479 105.623 16.5355 106.559 16.5355C107.962 16.5355 109.221 16.7854 110.359 17.2637C111.677 17.8179 112.748 18.3814 113.593 18.9446L115.135 19.9727L116.277 18.5131C116.697 17.9763 117.098 17.3918 117.479 16.7629C117.855 16.1434 118.192 15.5274 118.487 14.9151L118.493 14.9024L118.499 14.8897C118.784 14.2756 119.023 13.6746 119.15 13.133L119.45 11.8598L118.403 11.075C117.081 10.0834 115.308 9.30904 113.207 8.68663C111.022 8.01216 108.658 7.68597 106.132 7.68597C103.802 7.68597 101.595 8.05625 99.5262 8.81471L99.5194 8.81723C97.4323 9.59113 95.6717 10.7582 94.3059 12.3474L94.3 12.3543L94.2942 12.3612C92.8477 14.0756 92.1758 16.1801 92.1758 18.531C92.1758 20.7654 92.7145 22.7862 93.9388 24.4458L93.9451 24.4543L93.9514 24.4627C95.0812 25.9609 96.5541 27.1772 98.3197 28.1297L98.3334 28.1371L98.3473 28.1443C99.9988 29.0022 101.807 29.7881 103.768 30.5049L103.771 30.5061C105.26 31.0476 106.607 31.6412 107.816 32.2837L107.827 32.2895L107.838 32.2951C108.965 32.8759 109.781 33.5122 110.352 34.1732L110.36 34.1818L110.367 34.1904C110.801 34.6813 111.025 35.251 111.025 36.0075C111.025 36.6172 110.852 37.0489 110.536 37.4137L110.526 37.4255L110.516 37.4375C110.15 37.8744 109.601 38.2726 108.771 38.5813C107.946 38.8757 106.973 39.04 105.827 39.04C104.695 39.04 103.542 38.8203 102.358 38.3585C101.116 37.8532 99.9555 37.2056 98.8746 36.414C97.7468 35.5674 96.8033 34.7111 96.0314 33.8495L94.6769 32.3374L93.1852 33.7144C92.7939 34.0755 92.4079 34.537 92.0311 35.0455C91.6488 35.5415 91.2742 36.0826 90.9064 36.6658C90.5384 37.2295 90.2076 37.7804 89.9162 38.3184C89.6478 38.8138 89.4326 39.2222 89.2759 39.5355L88.685 40.7173L89.5402 41.7244C90.6319 43.0102 92.0404 44.1325 93.7127 45.1135ZM115.526 28.657C116.583 29.5516 117.407 30.5886 117.996 31.768C118.586 32.927 118.881 34.2385 118.881 35.7025C118.881 38.0408 118.281 39.9928 117.081 41.5585C115.882 43.1241 114.275 44.3035 112.262 45.0965C110.249 45.8895 107.992 46.286 105.491 46.286C103.6 46.286 101.719 46.0216 99.8488 45.493C97.9781 44.9643 96.2701 44.2628 94.7248 43.3885C93.1998 42.4938 91.9798 41.5076 91.0648 40.43C91.2071 40.1453 91.4104 39.759 91.6748 39.271C91.9391 38.783 92.2441 38.2746 92.5898 37.746C92.8129 37.3915 93.0361 37.0582 93.2593 36.7461C93.3818 36.5749 93.5043 36.41 93.6268 36.2515C93.9724 35.7838 94.2774 35.428 94.5417 35.184C94.6574 35.3131 94.7761 35.4417 94.8978 35.5697C95.6962 36.4096 96.6246 37.2265 97.6833 38.0205C98.9033 38.9151 100.215 39.6471 101.618 40.2165C103.021 40.7655 104.424 41.04 105.827 41.04C107.169 41.04 108.379 40.8468 109.456 40.4605C110.554 40.0538 111.418 39.4743 112.049 38.722C112.699 37.9696 113.025 37.0648 113.025 36.0075C113.025 34.7875 112.638 33.7403 111.866 32.866C111.093 31.9713 110.056 31.1885 108.755 30.5175C107.453 29.8261 106.02 29.1958 104.454 28.6265C102.563 27.9351 100.835 27.1828 99.2692 26.3695C97.7239 25.5358 96.4836 24.4988 95.5482 23.2585C94.6332 22.0181 94.1758 20.4423 94.1758 18.531C94.1758 16.579 94.7248 14.9523 95.8228 13.651C96.9411 12.3496 98.4051 11.3635 100.215 10.6925C102.045 10.0215 104.017 9.68597 106.132 9.68597C108.49 9.68597 110.656 9.99097 112.628 10.601C114.621 11.1906 116.146 11.882 117.203 12.675C117.122 13.0206 116.949 13.4781 116.685 14.0475C116.42 14.5965 116.115 15.1556 115.77 15.725C115.424 16.2943 115.068 16.8128 114.702 17.2805C113.726 16.6298 112.537 16.0096 111.134 15.42C109.731 14.8303 108.206 14.5355 106.559 14.5355C105.461 14.5355 104.403 14.6676 103.387 14.932C102.37 15.176 101.536 15.5928 100.886 16.1825C100.235 16.7721 99.9098 17.5753 99.9098 18.592C99.9098 19.4663 100.225 20.2491 100.855 20.9405C101.506 21.6318 102.38 22.252 103.478 22.801C104.576 23.3296 105.817 23.838 107.199 24.326C108.867 24.8953 110.412 25.5358 111.835 26.2475C113.259 26.9388 114.489 27.742 115.526 28.657ZM76.2815 11.8553L78.0525 11.383C78.506 11.2621 79.0628 11.178 79.6663 11.1134L79.6736 11.1126C80.3312 11.0446 80.9896 11.0105 81.6484 11.0105C82.1802 11.0105 82.7447 11.0322 83.3403 11.074C83.9552 11.0962 84.5156 11.1411 84.9849 11.2239L86.3801 11.4701L86.6107 12.868C86.9422 14.8777 87.2216 16.927 87.4491 19.0159C87.6803 21.1389 87.7964 23.2344 87.7964 25.302C87.7964 28.1408 87.5527 30.841 87.0585 33.398C86.5547 36.0046 85.7123 38.3565 84.5066 40.4274C83.278 42.5525 81.5986 44.2457 79.4895 45.4789C77.3175 46.761 74.7175 47.3405 71.7969 47.3405C68.6393 47.3405 65.8602 46.7231 63.5895 45.3409L63.5827 45.3368L63.576 45.3326C61.383 43.9739 59.6827 42.0987 58.4862 39.7526L58.4825 39.7455C57.3382 37.4792 56.5512 34.9176 56.0971 32.0846L56.0959 32.0772L56.0948 32.0698C55.6711 29.2949 55.4619 26.3465 55.4619 23.228C55.4619 21.3337 55.5243 19.4201 55.649 17.4872C55.7716 15.5873 55.9044 13.7276 56.0475 11.9082L56.1846 10.1651L57.9304 10.0681C58.3466 10.0449 58.8441 10.0345 59.4139 10.0345C60.0058 10.0345 60.5453 10.045 61.0297 10.067L61.0487 10.0679L61.0676 10.0691C61.73 10.1119 62.3836 10.1757 63.0284 10.2608C63.718 10.3291 64.3636 10.437 64.9296 10.6068L66.5268 11.086L66.3426 12.7433C66.1423 14.5459 65.9822 16.3273 65.8622 18.0875C65.7431 19.8349 65.6839 21.5178 65.6839 23.1365C65.6839 26.6128 65.9711 29.4746 66.5124 31.7555C67.074 34.0357 67.8577 35.553 68.7369 36.4947C69.5639 37.3602 70.557 37.7895 71.8579 37.7895C73.06 37.7895 73.9595 37.4043 74.7012 36.6493L74.7074 36.643L74.7136 36.6368C75.5465 35.804 76.2863 34.4834 76.8185 32.5026C77.3499 30.5045 77.6354 27.9946 77.6354 24.936C77.6354 23.1935 77.5472 21.3643 77.3694 19.4478L77.3692 19.4459C77.1912 17.5076 76.9341 15.5793 76.5979 13.6607L76.2815 11.8553ZM78.7509 33.0185C78.1612 35.2145 77.2868 36.892 76.1279 38.051C74.9892 39.21 73.5659 39.7895 71.8579 39.7895C70.0279 39.7895 68.5029 39.149 67.2829 37.868C66.0832 36.587 65.1784 34.7062 64.5684 32.2255C63.9787 29.7448 63.6839 26.7152 63.6839 23.1365C63.6839 21.4692 63.7449 19.7408 63.8669 17.9515C63.9889 16.1622 64.1515 14.3525 64.3549 12.5225C63.9482 12.4005 63.4297 12.309 62.7994 12.248C62.1894 12.1667 61.5692 12.1057 60.9389 12.065C60.4915 12.0447 59.9832 12.0345 59.4139 12.0345C58.8649 12.0345 58.4074 12.0447 58.0414 12.065C57.899 13.8747 57.7669 15.725 57.6449 17.616C57.5229 19.507 57.4619 21.3777 57.4619 23.228C57.4619 26.2577 57.6652 29.1043 58.0719 31.768C58.4989 34.4317 59.2309 36.7903 60.2679 38.844C61.3049 40.8773 62.7587 42.4735 64.6294 43.6325C66.5 44.7712 68.8892 45.3405 71.7969 45.3405C74.4605 45.3405 76.687 44.8118 78.4764 43.7545C80.286 42.6972 81.7195 41.2535 82.7769 39.4235C83.8545 37.5732 84.6272 35.4382 85.0949 33.0185C85.5625 30.5988 85.7964 28.0267 85.7964 25.302C85.7964 23.3093 85.6845 21.2862 85.4609 19.2325C85.2372 17.1788 84.9627 15.1658 84.6374 13.1935C84.2917 13.1325 83.824 13.0918 83.2344 13.0715C82.665 13.0308 82.1364 13.0105 81.6484 13.0105C81.2826 13.0105 80.9168 13.0222 80.551 13.0457C80.3271 13.0601 80.1032 13.0788 79.8794 13.102C79.7863 13.112 79.6967 13.1222 79.6107 13.1327C79.1706 13.1865 78.823 13.2474 78.5679 13.3155C78.9135 15.2878 79.1779 17.2703 79.3609 19.263C79.5439 21.2353 79.6354 23.1263 79.6354 24.936C79.6354 28.108 79.3405 30.8022 78.7509 33.0185ZM1.23223 44.3108L1.4021 45.8397L2.92332 46.0678C3.42398 46.1429 4.0777 46.1978 4.85055 46.2396L4.85338 46.2397C5.66101 46.2822 6.46873 46.3035 7.2765 46.3035C7.67813 46.3035 8.12478 46.2924 8.61387 46.2711C9.07881 46.2509 9.46597 46.2284 9.72386 46.1997L11.7617 45.9733L11.4847 43.9417C11.4297 43.5385 11.3219 42.5449 11.1589 40.9154C11.0182 39.2862 10.857 37.1899 10.6751 34.6234C10.5167 32.1085 10.3775 29.2674 10.2575 26.0988C10.3229 25.6952 10.5053 25.1304 10.8877 24.3815L10.8916 24.374L10.8954 24.3664C11.2904 23.5763 11.8273 22.8064 12.5229 22.0587L12.5307 22.0503L12.5384 22.0418C13.2155 21.2969 13.9684 20.6874 14.7993 20.2044C15.5475 19.7805 16.2942 19.5855 17.067 19.5855C18.0708 19.5855 18.7167 19.9049 19.2147 20.4802C19.8696 21.237 20.4356 22.3483 20.8302 23.9265L20.8315 23.9318C21.2432 25.5598 21.523 27.4282 21.6591 29.5476L21.6597 29.5568L21.6604 29.5659C21.8192 31.7302 21.899 33.9789 21.899 36.3125C21.899 37.5624 21.8889 38.8123 21.8688 40.0622L21.8685 40.0783V40.0945C21.8685 41.3444 21.8584 42.646 21.8382 43.9991L21.8131 45.6842L23.4694 45.9947C23.933 46.0816 24.495 46.1265 25.1071 46.1486C25.731 46.1908 26.3552 46.212 26.9795 46.212C27.5261 46.212 28.065 46.1907 28.5961 46.1477C29.0933 46.1276 29.5057 46.107 29.827 46.0855L31.694 45.9611V44.09C31.694 42.9632 31.7041 41.8365 31.7242 40.7097L31.7242 40.7091C31.7445 39.5509 31.7648 38.4334 31.7852 37.3567L31.7852 37.3512C31.8251 34.8788 31.9547 32.4804 32.1732 30.1557C32.386 27.892 32.7691 25.9005 33.3083 24.1684C33.8414 22.5199 34.5659 21.324 35.4199 20.4828C36.1414 19.7897 37.1346 19.372 38.6 19.372C39.319 19.372 39.8202 19.5385 40.1951 19.7868C40.5758 20.0389 40.9609 20.4648 41.2965 21.1956C42.0326 22.7986 42.4865 25.3744 42.4865 29.1145C42.4865 31.0496 42.3691 33.272 42.1295 35.7874L42.1288 35.7952L42.1281 35.803C41.9076 38.3287 41.5962 41.0826 41.193 44.0661L40.9085 46.1716L43.0273 46.3285C43.5868 46.37 44.1375 46.4014 44.6794 46.4226C45.2586 46.4648 45.8149 46.4865 46.347 46.4865C46.8955 46.4865 47.4438 46.465 47.9918 46.4222C48.5407 46.3992 49.0818 46.3546 49.6146 46.288L51.1978 46.0901L51.3566 44.5025C51.481 43.2582 51.5943 41.8563 51.6969 40.2987C51.8203 38.7124 51.9129 37.087 51.9747 35.4228C52.057 33.7515 52.0985 32.167 52.0985 30.67C52.0985 27.8321 51.9319 25.2177 51.5918 22.8328C51.2657 20.3829 50.6704 18.1934 49.7696 16.2995C48.8317 14.3273 47.4858 12.7374 45.7205 11.6026C43.8887 10.425 41.6626 9.91248 39.1795 9.91248C36.4621 9.91248 34.0221 10.5495 31.9654 11.929L31.9654 11.929L31.956 11.9354C30.1895 13.1349 28.7531 14.6616 27.6568 16.4969C27.372 15.8948 27.0442 15.3142 26.6734 14.7561C25.8387 13.4472 24.7462 12.3824 23.4148 11.5771C21.9751 10.6933 20.2922 10.309 18.47 10.309C16.569 10.309 14.8198 10.5913 13.2691 11.2166C11.9363 11.754 10.7503 12.4329 9.74285 13.2733C9.72884 12.9085 9.71449 12.6053 9.69961 12.3672L9.5824 10.492H7.7035C7.27737 10.492 6.78699 10.53 6.2541 10.593C5.71164 10.6373 5.14457 10.7022 4.55366 10.7866C3.9516 10.8726 3.37605 10.9702 2.82777 11.0798C2.28083 11.1892 1.78388 11.3098 1.36755 11.4486L0 11.9045V13.346C0 14.9281 0.0205371 16.7715 0.0613773 18.8748L0.0613847 18.8752C0.102149 20.9541 0.153088 23.1546 0.214192 25.4766C0.275504 27.8064 0.357256 30.1262 0.459455 32.4359C0.561527 34.7427 0.67389 36.9187 0.796591 38.9638C0.919912 41.0191 1.06473 42.8033 1.23223 44.3108ZM8.6795 34.757C8.8625 37.3393 9.02517 39.454 9.1675 41.101C9.20873 41.5133 9.2467 41.8877 9.2814 42.2243C9.3836 43.2155 9.45746 43.878 9.503 44.212C9.32 44.2323 8.99467 44.2526 8.527 44.273C8.15113 44.2893 7.8081 44.2991 7.4979 44.3023C7.42214 44.3031 7.34834 44.3035 7.2765 44.3035C6.50383 44.3035 5.73117 44.2831 4.9585 44.2425C4.20617 44.2018 3.62667 44.151 3.22 44.09C3.05733 42.626 2.915 40.8773 2.793 38.844C2.671 36.8106 2.55917 34.6451 2.4575 32.3475C2.35583 30.0498 2.2745 27.742 2.2135 25.424C2.1525 23.106 2.10167 20.91 2.061 18.836C2.02033 16.7416 2 14.9116 2 13.346C2.305 13.2443 2.71167 13.1426 3.22 13.041C3.72833 12.9393 4.26717 12.8478 4.8365 12.7665C5.13602 12.7237 5.4271 12.6865 5.70974 12.655C5.96434 12.6266 6.2121 12.6027 6.453 12.5835C6.54424 12.5725 6.63253 12.5626 6.71788 12.5536C7.10802 12.5125 7.43656 12.492 7.7035 12.492C7.72383 12.8173 7.74417 13.2951 7.7645 13.9255C7.7786 14.3484 7.7927 14.7909 7.80679 15.2529C7.81303 15.4573 7.81927 15.6655 7.8255 15.8775C7.83845 16.0976 7.84934 16.3116 7.85817 16.5194L7.85937 16.5481C7.87746 16.982 7.8865 17.3888 7.8865 17.7685C7.90683 18.3175 7.917 18.7038 7.917 18.9275C8.03408 18.6201 8.23016 18.2338 8.50524 17.7685L8.51912 17.745C8.62261 17.5707 8.73707 17.3853 8.8625 17.189C9.13304 16.7832 9.4567 16.3742 9.83348 15.9622C10.1363 15.631 10.4735 15.2977 10.845 14.9625C11.699 14.2101 12.7563 13.5798 14.017 13.0715C15.2777 12.5631 16.762 12.309 18.47 12.309C20.0153 12.309 21.3167 12.6343 22.374 13.285C23.4517 13.9356 24.326 14.7896 24.997 15.847C25.6263 16.7909 26.1123 17.8105 26.4552 18.906C26.489 19.0141 26.5215 19.1229 26.5525 19.2325C26.7558 19.9441 26.8982 20.6558 26.9795 21.3675C27.0812 22.0791 27.1523 22.7705 27.193 23.4415C27.3241 22.7088 27.4991 21.9894 27.7179 21.2831L27.7248 21.261C27.9587 20.5093 28.2424 19.7726 28.5759 19.0508C28.7517 18.67 28.9415 18.2934 29.145 17.921C30.121 16.152 31.4325 14.7083 33.0795 13.59C34.7468 12.4716 36.7802 11.9125 39.1795 11.9125C41.3958 11.9125 43.2157 12.37 44.639 13.285C46.0623 14.2 47.1705 15.4911 47.9635 17.1585C48.7565 18.8258 49.3055 20.8083 49.6105 23.106C49.9358 25.3833 50.0985 27.9046 50.0985 30.67C50.0985 32.134 50.0578 33.6895 49.9765 35.3365C49.9155 36.9835 49.824 38.5898 49.702 40.1555C49.6003 41.7008 49.4885 43.0835 49.3665 44.3035C48.8785 44.3645 48.3803 44.4051 47.872 44.4255C47.3637 44.4661 46.8553 44.4865 46.347 44.4865C45.9748 44.4865 45.5849 44.4746 45.1773 44.451C45.0504 44.4436 44.9218 44.4351 44.7915 44.4255C44.2628 44.4051 43.724 44.3746 43.175 44.334C43.266 43.6606 43.3524 42.9985 43.4342 42.3476C43.7181 40.0893 43.9469 37.9657 44.1205 35.977C44.3645 33.415 44.4865 31.1275 44.4865 29.1145C44.4865 25.2715 44.029 22.3536 43.114 20.361C42.199 18.3683 40.6943 17.372 38.6 17.372C36.709 17.372 35.184 17.9311 34.025 19.0495C32.8863 20.1678 32.012 21.6725 31.402 23.5635C30.8123 25.4545 30.4057 27.5895 30.182 29.9685C29.9583 32.3475 29.8262 34.7976 29.7855 37.319C29.7652 38.3966 29.7448 39.515 29.7245 40.674C29.7042 41.8126 29.694 42.9513 29.694 44.09C29.389 44.1103 28.9823 44.1306 28.474 44.151C27.986 44.1916 27.4878 44.212 26.9795 44.212C26.3898 44.212 25.8002 44.1916 25.2105 44.151C24.6208 44.1306 24.1633 44.09 23.838 44.029C23.8583 42.6666 23.8685 41.3551 23.8685 40.0945C23.8888 38.8338 23.899 37.5731 23.899 36.3125C23.899 33.9335 23.8177 31.6358 23.655 29.4195C23.5127 27.2031 23.2178 25.2105 22.7705 23.4415C22.3232 21.6521 21.642 20.2288 20.727 19.1715C19.812 18.1141 18.592 17.5855 17.067 17.5855C15.9283 17.5855 14.8405 17.8803 13.8035 18.47C12.7868 19.0596 11.8718 19.8018 11.0585 20.6965C10.2452 21.5708 9.5945 22.496 9.1065 23.472C8.6185 24.4276 8.33383 25.2715 8.2525 26.0035C8.3745 29.2568 8.51683 32.1746 8.6795 34.757Z" fill="white"/>
</svg>
