<svg width="259" height="78" viewBox="0 0 259 78" fill="none" xmlns="http://www.w3.org/2000/svg">
<path d="M181.52 70.6052L181.512 70.5993C178.531 68.3106 176.188 65.2198 174.468 61.3637L174.465 61.3571L174.462 61.3505C172.803 57.4832 171.637 53.0689 170.953 48.1178L170.952 48.1089C170.317 43.1822 170 37.9491 170 32.4106C170 27.5948 170.181 22.6691 170.542 17.6338C170.902 12.6112 171.33 7.69904 171.825 2.89738L171.918 2H172.82C174.588 2 176.712 2.04473 179.191 2.13372C181.671 2.22274 183.818 2.33422 185.632 2.46851L186.667 2.54515L186.552 3.57668C185.97 8.79492 185.522 13.9684 185.208 19.0971L185.208 19.0977C184.895 24.1809 184.738 28.9955 184.738 33.5418C184.738 38.6038 185.05 43.1199 185.67 47.0951C186.286 51.0477 187.33 54.0892 188.752 56.2804C190.153 58.3723 191.963 59.3574 194.252 59.3574C196.299 59.3574 198.048 58.5003 199.543 56.665L199.545 56.663C201.138 54.7176 202.458 51.9949 203.468 48.4396L203.47 48.4318L203.47 48.4319C204.527 44.8209 205.304 40.6463 205.794 35.9014L181.52 70.6052ZM181.52 70.6052C184.56 72.8925 188.38 74 192.904 74C196.423 74 199.564 73.2343 202.297 71.6724C204.981 70.1383 207.243 68.1138 209.078 65.6056C210.576 63.5584 211.788 61.34 212.714 58.9528C212.978 59.8351 213.275 60.71 213.604 61.5775L213.609 61.5895L213.614 61.6014C214.504 63.7744 215.676 65.7657 217.13 67.572L217.13 67.5721L217.138 67.5819C218.633 69.3906 220.529 70.8305 222.806 71.9078C225.128 73.0064 227.889 73.5342 231.052 73.5342C235.178 73.5342 238.794 72.5132 241.858 70.4339C244.87 68.3894 247.393 65.6131 249.436 62.1313C251.509 58.6737 253.158 54.7096 254.39 50.2484C255.665 45.7995 256.573 41.0659 257.118 36.0491C257.706 31.0433 258 25.9932 258 20.8992C258 19.3311 257.955 17.589 257.865 15.6739C257.82 13.7186 257.752 11.7413 257.662 9.7421C257.572 7.73569 257.459 5.94701 257.322 4.37738L257.251 3.5546L256.429 3.46923C255.549 3.37778 254.475 3.31033 253.211 3.2655C251.943 3.17637 250.801 3.13118 249.788 3.13118H249.783H249.777H249.772H249.766H249.761H249.755H249.75H249.744H249.739H249.733H249.728H249.722H249.716H249.711H249.705H249.7H249.694H249.689H249.683H249.678H249.672H249.667H249.661H249.656H249.65H249.645H249.639H249.633H249.628H249.622H249.617H249.611H249.606H249.6H249.595H249.589H249.584H249.578H249.572H249.567H249.561H249.556H249.55H249.545H249.539H249.534H249.528H249.522H249.517H249.511H249.506H249.5H249.495H249.489H249.484H249.478H249.472H249.467H249.461H249.456H249.45H249.445H249.439H249.434H249.428H249.422H249.417H249.411H249.406H249.4H249.395H249.389H249.383H249.378H249.372H249.367H249.361H249.356H249.35H249.344H249.339H249.333H249.328H249.322H249.317H249.311H249.305H249.3H249.294H249.289H249.283H249.278H249.272H249.266H249.261H249.255H249.25H249.244H249.239H249.233H249.227H249.222H249.216H249.211H249.205H249.199H249.194H249.188H249.183H249.177H249.172H249.166H249.16H249.155H249.149H249.144H249.138H249.132H249.127H249.121H249.116H249.11H249.104H249.099H249.093H249.088H249.082H249.077H249.071H249.065H249.06H249.054H249.049H249.043H249.037H249.032H249.026H249.021H249.015H249.009H249.004H248.998H248.993H248.987H248.981H248.976H248.97H248.965H248.959H248.953H248.948H248.942H248.937H248.931H248.925H248.92H248.914H248.908H248.903H248.897H248.892H248.886H248.88H248.875H248.869H248.864H248.858H248.852H248.847H248.841H248.835H248.83H248.824H248.819H248.813H248.807H248.802H248.796H248.791H248.785H248.779H248.774H248.768H248.762H248.757H248.751H248.746H248.74H248.734H248.729H248.723H248.717H248.712H248.706H248.701H248.695H248.689H248.684H248.678H248.672H248.667H248.661H248.655H248.65H248.644H248.639H248.633H248.627H248.622H248.616H248.61H248.605H248.599H248.593H248.588H248.582H248.577H248.571H248.565H248.56H248.554H248.548H248.543H248.537H248.531H248.526H248.52H248.515H248.509H248.503H248.498H248.492H248.486H248.481H248.475H248.469H248.464H248.458H248.452H248.447H248.441H248.435H248.43H248.424H248.418H248.413H248.407H248.401H248.396H248.39H248.385H248.379H248.373H248.368H248.362H248.356H248.351H248.345H248.339H248.334H248.328H248.322H248.317H248.311H248.305H248.3H248.294H248.288H248.283H248.277H248.271H248.266H248.26H248.254H248.249H248.243H248.237H248.232H248.226H248.22H248.215H248.209H248.203H248.198H248.192H248.186H248.18H248.175H248.169H248.163H248.158H248.152H248.146H248.141H248.135H248.129H248.124H248.118H248.112H248.107H248.101H248.095H248.09H248.084H248.078H248.073H248.067H248.061H248.055H248.05H248.044H248.038H248.033H248.027H248.021H248.016H248.01H248.004H247.999H247.993H247.987H247.982H247.976H247.97H247.964H247.959H247.953H247.947H247.942H247.936H247.93H247.925H247.919H247.913H247.907H247.902H247.896H247.89H247.885H247.879H247.873H247.868H247.862H247.856H247.85H247.845H247.839H247.833H247.828H247.822H247.816H247.81H247.805H247.799H247.793H247.788H247.782H247.776H247.77H247.765H247.759H247.753H247.748H247.742H247.736H247.73H247.725H247.719H247.713H247.708H247.702H247.696H247.69H247.685H247.679H247.673H247.668H247.662H247.656H247.65H247.645H247.639H247.633H247.627H247.622H247.616H247.61H247.605H247.599H247.593H247.587H247.582H247.576H247.57H247.564H247.559H247.553H247.547H247.542H247.536H247.53H247.524H247.519H247.513H247.507H247.501H247.496H247.49H247.484H247.478H247.473H247.467H247.461H247.455H247.45H247.444H247.438H247.432H247.427H247.421H247.415H247.41H247.404H247.398H247.392H247.387H247.381H247.375H247.369H247.364H247.358H247.352H247.346H247.341H247.335H247.329H247.323H247.318H247.312H247.306H247.3H247.294H247.289H247.283H247.277H247.271H247.266H247.26H247.254H247.248H247.243H247.237H247.231H247.225H247.22H247.214H247.208H247.202H247.197H247.191H247.185H247.179H247.174H247.168H247.162H247.156H247.15H247.145H247.139H247.133H247.127H247.122H247.116H247.11H247.104H247.098H247.093H247.087H247.081H247.075H247.07H247.064H247.058H247.052H247.047H247.041H247.035H247.029H247.023H247.018H247.012H247.006H247H246.994H246.989H246.983H246.977H246.971H246.966H246.96H246.954H246.948H246.942H246.937H246.931H246.925H246.919H246.913H246.908H246.902H246.896H246.89C245.931 3.13118 245.037 3.15371 244.207 3.19922L243.233 3.25263L243.262 4.2275C243.307 5.7332 243.352 7.43893 243.397 9.34484L243.397 9.3454C243.442 11.2007 243.464 13.0336 243.464 14.8441V14.8565L243.464 14.8688C243.509 16.6818 243.531 18.2702 243.531 19.635C243.531 25.0611 243.286 30.2852 242.795 35.3077L242.794 35.3157C242.349 40.2814 241.594 44.7012 240.534 48.5805C239.478 52.4026 238.089 55.3493 236.402 57.473L236.402 57.473L236.394 57.4827C234.81 59.5281 232.911 60.4886 230.647 60.4886C228.326 60.4886 226.515 59.5624 225.129 57.6513C223.714 55.5935 222.63 52.6659 221.926 48.8019C221.217 44.8659 220.749 40.2331 220.526 34.8973C220.302 29.5459 220.19 23.7046 220.19 17.3726V17.3601V17.3477V17.3352V17.3227V17.3102V17.2978V17.2853V17.2728V17.2603V17.2479V17.2354V17.2229V17.2104V17.198V17.1855V17.173V17.1605V17.148V17.1356V17.1231V17.1106V17.0981V17.0857V17.0732V17.0607V17.0482V17.0358V17.0233V17.0108V16.9983V16.9859V16.9734V16.9609V16.9484V16.936V16.9235V16.911V16.8985V16.886V16.8736V16.8611V16.8486V16.8361V16.8237V16.8112V16.7987V16.7862V16.7738V16.7613V16.7488V16.7363V16.7239V16.7114V16.6989V16.6864V16.674V16.6615V16.649V16.6365V16.624V16.6116V16.5991V16.5866V16.5741V16.5617V16.5492V16.5367V16.5242V16.5118V16.4993V16.4868V16.4743V16.4619V16.4494V16.4369V16.4244V16.412V16.3995V16.387V16.3745V16.362V16.3496V16.3371V16.3246V16.3121V16.2997V16.2872V16.2747V16.2622V16.2498V16.2373V16.2248V16.2123V16.1999V16.1874V16.1749V16.1624V16.15V16.1375V16.125V16.1125V16.1V16.0876V16.0751V16.0626V16.0501V16.0377V16.0252V16.0127V16.0002V15.9878V15.9753V15.9628V15.9503V15.9379V15.9254V15.9129V15.9004V15.8879V15.8755V15.863V15.8505V15.838V15.8256V15.8131V15.8006V15.7881V15.7757V15.7632V15.7507V15.7382V15.7258V15.7133V15.7008V15.6883V15.6759V15.6634V15.6509V15.6384V15.6259V15.6135V15.601V15.5885V15.576V15.5636V15.5511V15.5386V15.5261V15.5137V15.5012V15.4887V15.4762V15.4638V15.4513V15.4388V15.4263V15.4139V15.4014V15.3889V15.3764V15.3639V15.3515V15.339V15.3265V15.314V15.3016V15.2891V15.2766V15.2641V15.2517V15.2392V15.2267V15.2142V15.2018V15.1893V15.1768V15.1643V15.1519V15.1394V15.1269V15.1144V15.1019V15.0895V15.077V15.0645V15.052V15.0396V15.0271V15.0146V15.0021V14.9897V14.9772V14.9647V14.9522V14.9398V14.9273V14.9148V14.9023V14.8899V14.8774V14.8649V14.8524V14.8399V14.8275V14.815V14.8025V14.79V14.7776V14.7651V14.7526V14.7401V14.7277V14.7152V14.7027V14.6902V14.6778V14.6653V14.6528V14.6403V14.6279V14.6154V14.6029V14.5904V14.5779V14.5655V14.553V14.5405V14.528V14.5156V14.5031V14.4906V14.4781V14.4657V14.4532V14.4407V14.4282V14.4158V14.4033V14.3908V14.3783V14.3658V14.3534V14.3409V14.3284V14.3159V14.3035V14.291V14.2785V14.266V14.2536V14.2411V14.2286V14.2161V14.2037V14.1912V14.1787V14.1662V14.1538V14.1413V14.1288V14.1163V14.1038V14.0914V14.0789V14.0664V14.0539V14.0415V14.029V14.0165V14.004V13.9916V13.9791V13.9666V13.9541V13.9417V13.9292V13.9167V13.9042V13.8918V13.8793V13.8668V13.8543V13.8418V13.8294V13.8169V13.8044V13.7919V13.7795V13.767V13.7545V13.742V13.7296V13.7171V13.7046V13.6921V13.6797V13.6672V13.6547V13.6422V13.6298V13.6173V13.6048V13.5923V13.5798V13.5674V13.5549V13.5424V13.5299V13.5175V13.505V13.4925V13.48V13.4676V13.4551V13.4426V13.4301V13.4177V13.4052V13.3927V13.3802V13.3678V13.3553V13.3428V13.3303V13.3178V13.3054V13.2929V13.2804V13.2679V13.2555V13.243V13.2305V13.218V13.2056V13.1931V13.1806V13.1681V13.1557V13.1432V13.1307V13.1182V13.1058V13.0933V13.0808V13.0683V13.0558V13.0434V13.0309V13.0184V13.0059V12.9935V12.981V12.9685V12.956V12.9436V12.9311V12.9186V12.9061V12.8937V12.8812V12.8687V12.8562V12.8437V12.8313V12.8188V12.8063V12.7938V12.7814V12.7689V12.7564V12.7439V12.7315V12.719V12.7065V12.694V12.6816V12.6691V12.6566V12.6441V12.6317V12.6192V12.6067V12.5942V12.5817V12.5693V12.5568V12.5443V12.5318V12.5194V12.5069V12.4944V12.4819V12.4695V12.457V12.4445V12.432V12.4196V12.4071V12.3946V12.3821V12.3697V12.3572V12.3447V12.3322V12.3197V12.3073V12.2948V12.2823V12.2698V12.2574V12.2449V12.2324V12.2199V12.2075V12.195V12.1825V12.17V12.1576V12.1451V12.1326V12.1201V12.1077V12.0952V12.0827V12.0702V12.0577V12.0453V12.0328V12.0203V12.0078V11.9954V11.9829V11.9704V11.9579V11.9455V11.933V11.9205V11.908V11.8956V11.8831V11.8706V11.8581V11.8456V11.8332V11.8207V11.8082V11.7957V11.7833V11.7708V11.7583V11.7458V11.7334V11.7209V11.7084V11.6959V11.6835V11.671V11.6585V11.646V11.6336V11.6211V11.6086V11.5961V11.5836V11.5712V11.5587V11.5462V11.5337V11.5213V11.5088V11.4963V11.4838V11.4714V11.4589V11.4464V11.4339V11.4215V11.409V11.3965V11.384V11.3716V11.3591V11.3466V11.3341V11.3216V11.3092V11.2967V11.2842V11.2717V11.2593V11.2468V11.2343V11.2218V11.2094V11.1969V11.1844V11.1719V11.1595V11.147V11.1345V11.122V11.1096V11.0971V11.0846V11.0721V11.0596V11.0472V11.0347V11.0222V11.0097V10.9973V10.9848V10.9723V10.9598V10.9474V10.9349V10.9224V10.9099V10.8974V10.885V10.8725V10.86V10.8475V10.835V10.8226V10.8101V10.7976V10.7851V10.7726V10.7601V10.7476V10.7352V10.7227V10.7102V10.6977V10.6852V10.6727V10.6602V10.6477V10.6353V10.6228V10.6103V10.5978V10.5853V10.5728V10.5603V10.5478V10.5353V10.5228V10.5103V10.4978V10.4853V10.4728V10.4603V10.4478V10.4353V10.4228V10.4103V10.3978V10.3853V10.3728V10.3603V10.3478V10.3353V10.3228V10.3103V10.2978V10.2853V10.2728V10.2603V10.2478V10.2353V10.2228V10.2103V10.1978V10.1853V10.1728V10.1603V10.1477V10.1352V10.1227V10.1102V10.0977V10.0852V10.0727V10.0602V10.0476V10.0351V10.0226V10.0101V9.99758V9.98507V9.97255V9.96003V9.94751V9.93499V9.92248V9.90996V9.89744V9.88491V9.87239V9.85987V9.84735V9.83483V9.8223V9.80978V9.79726V9.78473V9.77221V9.75968V9.74715V9.73463V9.7221V9.70957V9.69704V9.68452V9.67199V9.65946V9.64693V9.6344V9.62186V9.60933V9.5968V9.58427V9.57173V9.5592V9.54667V9.53413V9.5216V9.50906V9.49652V9.48399V9.47145V9.45891V9.44637V9.43383V9.42129V9.40875V9.39621V9.38367V9.37113V9.35859V9.34605V9.3335V9.32096V9.30842V9.29587V9.28333V9.27078V9.25823V9.24569V9.23314V9.22059V9.20805V9.1955V9.18295V9.1704V9.15785V9.1453V9.13275V9.1202V9.10764V9.09509V9.08254V9.06998V9.05743V9.04487V9.03232V9.01976V9.00721V8.99465V8.98209V8.96954V8.95698V8.94442V8.93186V8.9193V8.90674V8.89418V8.88162V8.86906V8.85649V8.84393V8.83137V8.8188V8.80624V8.79367V8.78111V8.76854V8.75598V8.74341V8.73084V8.71828V8.70571V8.69314V8.68057V8.668V8.65543V8.64286V8.63029V8.61771V8.60514V8.59257V8.58V8.56742V8.55485V8.54227V8.5297V8.51712V8.50454V8.49197V8.47939V8.46681V8.45423V8.44165V8.42907V8.41649V8.40391V8.39133V8.37875V8.36617V8.35359V8.341V8.32842V8.31584V8.30325V8.29067V8.27808V8.26549V8.25291V8.24032V8.22773V8.21514V8.20256V8.18997V8.17738V8.16479V8.1522V8.1396V8.12701V8.11442V8.10183V8.08923V8.07664V8.06405V8.05145V8.03886V8.02626V8.01366V8.00107V7.98847V7.97587V7.96327V7.95068V7.93808V7.92548V7.91288V7.90028V7.88767V7.87507V7.86247V7.84987V7.83726V7.82466V7.81205V7.79945V7.78684V7.77424V7.76163V7.74903V7.73642V7.72381V7.7112V7.69859V7.68598V7.67337V7.66076V7.64815V7.63554V7.62293V7.61032V7.5977V7.58509V7.57247V7.55986V7.54724V7.53463V7.52201V7.5094V7.49678V7.48416V7.47154V7.45893V7.44631V7.43369V7.42107V7.40845V7.39582V7.3832V7.37058V7.35796V7.34533V7.33271V7.32009V7.30746V7.29484V7.28221V7.26958V7.25696V7.24433V7.2317V7.21907V7.20645V7.19382V7.18119V7.16856V7.15593V7.14329V7.13066V7.11803V7.1054V7.09276V7.08013V7.0675V7.05486V7.04223V7.02959V7.01695V7.00432V6.99168V6.97904V6.9664V6.95376V6.94112V6.92848V6.91584V6.9032V6.89056V6.87792V6.86528V6.85263V6.83999V6.82735V6.8147V6.80206V6.78941V6.77677V6.76412V6.75147V6.73882V6.72618V6.71353V6.70088V6.68823V6.67558V6.66293V6.65028V6.63762V6.62497V6.61232V6.59967V6.58701V6.57436V6.5617V6.54905V6.53639V6.52374V6.51108V6.49842V6.48577V6.47311V6.46045V6.44779V6.43513V6.42247V6.40981V6.39715V6.38449V6.37182V6.35916V6.3465V6.33383V6.32117V6.3085V6.29584V6.28317V6.27051V6.25784V6.24517V6.2325V6.21984V6.20717V6.1945V6.18183V6.16916V6.15649V6.14382V6.13114V6.11847V6.1058V6.09312V6.08045V6.06778V6.0551V6.04243V6.02975V6.01707V6.0044V5.99172V5.97904V5.96636V5.95368V5.941V5.92832V5.91564V5.90296V5.89028V5.8776V5.86492V5.85223V5.83955V5.82686V5.81418V5.8015V5.78881V5.77612V5.76344V5.75075V5.73806V5.72537V5.71268V5.7V5.68731V5.67462V5.66193V5.64923V5.63654V5.62385V5.61116V5.59846V5.58577V5.57308V5.56038V5.54769V5.53499V5.52229V5.5096V5.4969V5.4842V5.4715V5.4588V5.44611V5.43341V5.42071V5.408V5.3953V5.3826V5.3699V5.3572V5.34449V5.33179V5.31908V5.30638V5.29367V5.28097V5.26826V5.25555V5.24285V5.23014V5.21743V5.20472V5.19201V5.1793V5.16659V5.15388V5.14117V5.12846V5.11574V5.10303V5.09032V5.0776V5.06489V5.05217V5.03946V5.02674V5.01403V5.00131V4.98859V4.97587V4.96315V4.95043V4.93772V4.92499V4.91227V4.89955V4.88683V4.87411V4.86139V4.84866V4.83594V4.82322V4.81049V4.79777V4.78504V4.77231V4.75959V4.74686V4.73413V4.7214V4.70867V4.69595V4.68322V4.67049V4.65775V4.64502V4.63229V4.61956V4.60683V4.59409V4.58136V4.56862V4.55589V4.54315V4.53042V3.62429L219.288 3.53526C218.345 3.44216 217.099 3.39761 215.565 3.39733C214.037 3.35312 212.509 3.33094 210.982 3.3308C209.456 3.28658 208.214 3.26425 207.26 3.26425H206.222M181.52 70.6052L206.222 3.26425M206.222 3.26425L206.261 4.30174M206.222 3.26425L206.261 4.30174M206.261 4.30174C206.35 6.68804 206.418 9.38627 206.463 12.397C206.507 15.4099 206.53 18.0664 206.53 20.3669C206.53 25.9269 206.284 31.1046 205.794 35.9012L206.261 4.30174Z" fill="#ED0D0D" stroke="#ED0D0D" stroke-width="2"/>
<path d="M95.3784 17.8568L95.3784 17.8568L95.3754 17.8625C92.4409 23.3745 91 30.0878 91 37.9582C91 50.3719 93.8019 60.0469 99.5537 66.8336C105.349 73.672 114.26 77 126.065 77C132.901 77 138.806 75.5814 143.735 72.6959L143.738 72.6944C148.695 69.773 152.487 65.7086 155.101 60.5208L155.102 60.5176C157.713 55.2893 159 49.1709 159 42.1925C159 34.1244 157.834 27.0097 155.475 20.8681C153.153 14.6585 149.559 9.78503 144.679 6.29634C139.769 2.74111 133.584 1 126.198 1C119.229 1 113.073 2.41799 107.759 5.2872L107.756 5.28892C102.477 8.16371 98.3493 12.3623 95.3784 17.8568ZM143.598 48.6416L143.596 48.6486L143.594 48.6557C142.869 51.3698 141.743 53.8151 140.217 55.9992C138.717 58.1026 136.757 59.7918 134.317 61.0665C131.918 62.3203 129.001 62.9691 125.532 62.9691C119.111 62.9691 114.331 60.669 111.04 56.1238C107.69 51.4978 105.974 45.4693 105.974 37.9582C105.974 33.0867 106.712 28.802 108.165 25.0866C109.654 21.3926 111.849 18.5294 114.738 16.4565C117.597 14.4057 121.174 13.3506 125.532 13.3506C129.964 13.3506 133.519 14.5091 136.278 16.7555L136.278 16.7555L136.285 16.7612C139.086 18.9992 141.205 22.1235 142.618 26.1884C144.038 30.2756 144.758 34.9559 144.758 40.2434C144.758 43.1095 144.371 45.9079 143.598 48.6416Z" fill="#ED0D0D" stroke="#ED0D0D" stroke-width="2"/>
<mask id="path-3-outside-1_136_132" maskUnits="userSpaceOnUse" x="0" y="0.672089" width="76" height="77" fill="black">
<rect fill="white" y="0.672089" width="76" height="77"/>
<path fill-rule="evenodd" clip-rule="evenodd" d="M19.3348 39.1746C19.4984 35.2151 19.632 31.0457 19.7357 26.6666C21.304 25.2328 23.3427 23.5973 25.8519 21.7602C28.406 19.9231 31.3857 18.3324 34.7911 16.9882C38.1965 15.6439 41.9379 14.9718 46.0154 14.9718C49.9585 14.9718 52.9383 15.9352 54.9546 17.8619C57.0158 19.7887 58.3824 22.4995 59.0545 25.9945C59.7714 29.4895 60.1299 33.567 60.1299 38.227C60.1299 41.8565 59.9731 45.7323 59.6594 49.8547C59.3457 53.9322 58.9425 58.0545 58.4496 62.2216C57.9567 66.3439 57.419 70.3094 56.8365 74.118C57.5982 74.2525 58.6288 74.3421 59.9282 74.3869C61.2277 74.4317 62.5943 74.4541 64.0282 74.4541C65.462 74.4541 66.8062 74.4093 68.0609 74.3197C69.3603 74.2749 70.3236 74.2077 70.9509 74.118C71.4886 69.6821 71.9143 65.3133 72.228 61.0118C72.5865 56.7102 72.8329 52.6327 72.9673 48.7793C73.1465 44.9258 73.2361 41.4756 73.2361 38.4287C73.2361 30.5873 72.5864 24.023 71.287 18.7357C70.0324 13.4484 67.6352 9.46046 64.0954 6.772C60.5556 4.03872 55.3803 2.67209 48.5695 2.67209C44.7608 2.67209 40.9746 3.3442 37.2107 4.68844C33.4469 5.98786 30.0415 7.60094 26.9946 9.52767C23.9476 11.4544 21.5952 13.3363 19.9373 15.1735V11.0063C19.9821 9.43806 19.9821 8.00421 19.9373 6.70479C19.9373 5.40536 19.9149 4.50921 19.8701 4.01632C19.1084 3.8819 18.2122 3.79228 17.1817 3.74748C16.1959 3.70267 15.2101 3.68026 14.2244 3.68026C12.6561 3.68026 11.1102 3.74747 9.58674 3.8819C8.10808 3.97151 6.83107 4.10594 5.75568 4.28517C5.75568 6.09648 5.75297 7.86883 5.74753 9.60221L19.3348 39.1746ZM19.059 45.1105L3.52996 69.5133C3.36521 71.1973 3.18856 72.8219 3 74.3869C3.67212 74.4765 4.7251 74.5437 6.15895 74.5885C7.5928 74.6781 8.86981 74.7454 9.99 74.7902C11.1998 74.835 12.4096 74.835 13.6194 74.7902H16.7112C17.0248 72.2361 17.3833 68.6291 17.7866 63.9691C18.1898 59.3091 18.5707 53.8201 18.9292 47.5022C18.9738 46.7147 19.0171 45.9175 19.059 45.1105Z"/>
</mask>
<path fill-rule="evenodd" clip-rule="evenodd" d="M19.3348 39.1746C19.4984 35.2151 19.632 31.0457 19.7357 26.6666C21.304 25.2328 23.3427 23.5973 25.8519 21.7602C28.406 19.9231 31.3857 18.3324 34.7911 16.9882C38.1965 15.6439 41.9379 14.9718 46.0154 14.9718C49.9585 14.9718 52.9383 15.9352 54.9546 17.8619C57.0158 19.7887 58.3824 22.4995 59.0545 25.9945C59.7714 29.4895 60.1299 33.567 60.1299 38.227C60.1299 41.8565 59.9731 45.7323 59.6594 49.8547C59.3457 53.9322 58.9425 58.0545 58.4496 62.2216C57.9567 66.3439 57.419 70.3094 56.8365 74.118C57.5982 74.2525 58.6288 74.3421 59.9282 74.3869C61.2277 74.4317 62.5943 74.4541 64.0282 74.4541C65.462 74.4541 66.8062 74.4093 68.0609 74.3197C69.3603 74.2749 70.3236 74.2077 70.9509 74.118C71.4886 69.6821 71.9143 65.3133 72.228 61.0118C72.5865 56.7102 72.8329 52.6327 72.9673 48.7793C73.1465 44.9258 73.2361 41.4756 73.2361 38.4287C73.2361 30.5873 72.5864 24.023 71.287 18.7357C70.0324 13.4484 67.6352 9.46046 64.0954 6.772C60.5556 4.03872 55.3803 2.67209 48.5695 2.67209C44.7608 2.67209 40.9746 3.3442 37.2107 4.68844C33.4469 5.98786 30.0415 7.60094 26.9946 9.52767C23.9476 11.4544 21.5952 13.3363 19.9373 15.1735V11.0063C19.9821 9.43806 19.9821 8.00421 19.9373 6.70479C19.9373 5.40536 19.9149 4.50921 19.8701 4.01632C19.1084 3.8819 18.2122 3.79228 17.1817 3.74748C16.1959 3.70267 15.2101 3.68026 14.2244 3.68026C12.6561 3.68026 11.1102 3.74747 9.58674 3.8819C8.10808 3.97151 6.83107 4.10594 5.75568 4.28517C5.75568 6.09648 5.75297 7.86883 5.74753 9.60221L19.3348 39.1746ZM19.059 45.1105L3.52996 69.5133C3.36521 71.1973 3.18856 72.8219 3 74.3869C3.67212 74.4765 4.7251 74.5437 6.15895 74.5885C7.5928 74.6781 8.86981 74.7454 9.99 74.7902C11.1998 74.835 12.4096 74.835 13.6194 74.7902H16.7112C17.0248 72.2361 17.3833 68.6291 17.7866 63.9691C18.1898 59.3091 18.5707 53.8201 18.9292 47.5022C18.9738 46.7147 19.0171 45.9175 19.059 45.1105Z" fill="#ED0D0D"/>
<path d="M19.7357 26.6666L18.3862 25.1906L17.7564 25.7663L17.7362 26.6193L19.7357 26.6666ZM19.3348 39.1746L17.5175 40.0096L21.3331 39.2572L19.3348 39.1746ZM25.8519 21.7602L24.6841 20.1366L24.6773 20.1415L24.6705 20.1465L25.8519 21.7602ZM34.7911 16.9882L34.0568 15.1279L34.0568 15.1279L34.7911 16.9882ZM54.9546 17.8619L53.5729 19.3079L53.5808 19.3155L53.5888 19.323L54.9546 17.8619ZM59.0545 25.9945L57.0905 26.3722L57.0928 26.3843L57.0953 26.3964L59.0545 25.9945ZM59.6594 49.8547L61.6535 50.008L61.6536 50.0064L59.6594 49.8547ZM58.4496 62.2216L60.4355 62.459L60.4358 62.4565L58.4496 62.2216ZM56.8365 74.118L54.8595 73.8157L54.564 75.7479L56.4889 76.0876L56.8365 74.118ZM59.9282 74.3869L59.9972 72.3881L59.9972 72.3881L59.9282 74.3869ZM68.0609 74.3197L67.9919 72.3209L67.9551 72.3221L67.9184 72.3248L68.0609 74.3197ZM70.9509 74.118L71.2338 76.0979L72.7519 75.8811L72.9364 74.3587L70.9509 74.118ZM72.228 61.0118L70.2349 60.8457L70.234 60.856L70.2333 60.8663L72.228 61.0118ZM72.9673 48.7793L70.9695 48.6863L70.9689 48.6979L70.9685 48.7095L72.9673 48.7793ZM71.287 18.7357L69.3411 19.1974L69.3429 19.2052L69.3448 19.213L71.287 18.7357ZM64.0954 6.772L62.873 8.35501L62.8794 8.35988L62.8857 8.36471L64.0954 6.772ZM37.2107 4.68844L37.8634 6.57894L37.8734 6.57548L37.8834 6.57192L37.2107 4.68844ZM26.9946 9.52767L25.9256 7.83729L25.9256 7.83729L26.9946 9.52767ZM19.9373 15.1735H17.9373V20.3749L21.4221 16.5134L19.9373 15.1735ZM19.9373 11.0063L17.9382 10.9492L17.9373 10.9778V11.0063H19.9373ZM19.9373 6.70479H17.9373V6.73926L17.9385 6.77371L19.9373 6.70479ZM19.8701 4.01632L21.8619 3.83525L21.7235 2.31248L20.2177 2.04675L19.8701 4.01632ZM17.1817 3.74748L17.0908 5.74542L17.0948 5.74559L17.1817 3.74748ZM9.58674 3.8819L9.70772 5.87823L9.73515 5.87657L9.76252 5.87416L9.58674 3.8819ZM5.75568 4.28517L5.42688 2.31238L3.75568 2.59092V4.28517H5.75568ZM5.74753 9.60221L3.74754 9.59594L3.74615 10.0367L3.93017 10.4372L5.74753 9.60221ZM3.52996 69.5133L1.84264 68.4396L1.586 68.8428L1.53946 69.3186L3.52996 69.5133ZM19.059 45.1105L21.0563 45.2142L21.4502 37.6277L17.3717 44.0367L19.059 45.1105ZM3 74.3869L1.01436 74.1477L0.778133 76.1084L2.73567 76.3694L3 74.3869ZM6.15895 74.5885L6.28371 72.5924L6.25259 72.5905L6.22142 72.5895L6.15895 74.5885ZM9.99 74.7902L9.91007 76.7886L9.91598 76.7888L9.99 74.7902ZM13.6194 74.7902V72.7902H13.5824L13.5454 72.7915L13.6194 74.7902ZM16.7112 74.7902V76.7902H18.4806L18.6963 75.0339L16.7112 74.7902ZM17.7866 63.9691L19.7791 64.1415L19.7791 64.1415L17.7866 63.9691ZM18.9292 47.5022L16.9324 47.389L16.9324 47.389L18.9292 47.5022ZM17.7362 26.6193C17.6329 30.9879 17.4996 35.1454 17.3365 39.092L21.3331 39.2572C21.4973 35.2847 21.6312 31.1036 21.7351 26.714L17.7362 26.6193ZM24.6705 20.1465C22.1269 22.0087 20.0262 23.6911 18.3862 25.1906L21.0852 28.1427C22.5817 26.7745 24.5585 25.1859 27.0334 23.3739L24.6705 20.1465ZM34.0568 15.1279C30.5221 16.5231 27.3921 18.1887 24.6841 20.1366L27.0198 23.3838C29.4199 21.6574 32.2494 20.1417 35.5254 18.8485L34.0568 15.1279ZM46.0154 12.9718C41.7151 12.9718 37.7211 13.6814 34.0568 15.1279L35.5254 18.8485C38.6718 17.6065 42.1608 16.9718 46.0154 16.9718V12.9718ZM56.3363 16.4159C53.8176 14.0091 50.2593 12.9718 46.0154 12.9718V16.9718C49.6577 16.9718 52.0589 17.8612 53.5729 19.3079L56.3363 16.4159ZM61.0185 25.6168C60.2876 21.816 58.763 18.6842 56.3204 16.4009L53.5888 19.323C55.2685 20.8931 56.4772 23.183 57.0905 26.3722L61.0185 25.6168ZM62.1299 38.227C62.1299 33.4705 61.7645 29.2529 61.0137 25.5926L57.0953 26.3964C57.7783 29.7261 58.1299 33.6635 58.1299 38.227H62.1299ZM61.6536 50.0064C61.9706 45.8404 62.1299 41.9135 62.1299 38.227H58.1299C58.1299 41.7995 57.9755 45.6243 57.6652 49.7029L61.6536 50.0064ZM60.4358 62.4565C60.9318 58.263 61.3377 54.1135 61.6535 50.008L57.6653 49.7013C57.3538 53.7508 56.9532 57.846 56.4634 61.9867L60.4358 62.4565ZM58.8135 74.4204C59.3996 70.5886 59.9402 66.6014 60.4355 62.459L56.4637 61.9842C55.9733 66.0864 55.4384 70.0302 54.8595 73.8157L58.8135 74.4204ZM59.9972 72.3881C58.7375 72.3447 57.8127 72.2594 57.1841 72.1485L56.4889 76.0876C57.3837 76.2455 58.5201 76.3395 59.8593 76.3857L59.9972 72.3881ZM64.0282 72.4541C62.615 72.4541 61.2714 72.432 59.9972 72.3881L59.8593 76.3857C61.1839 76.4314 62.5736 76.4541 64.0282 76.4541V72.4541ZM67.9184 72.3248C66.7172 72.4106 65.4209 72.4541 64.0282 72.4541V76.4541C65.5031 76.4541 66.8953 76.408 68.2033 76.3146L67.9184 72.3248ZM70.6681 72.1381C70.1522 72.2118 69.2777 72.2765 67.9919 72.3209L68.1298 76.3185C69.4428 76.2732 70.495 76.2035 71.2338 76.0979L70.6681 72.1381ZM70.2333 60.8663C69.922 65.1349 69.4995 69.4719 68.9655 73.8774L72.9364 74.3587C73.4778 69.8922 73.9066 65.4917 74.2227 61.1572L70.2333 60.8663ZM70.9685 48.7095C70.8353 52.5273 70.591 56.5725 70.2349 60.8457L74.2211 61.1779C74.5819 56.848 74.8304 52.7381 74.9661 48.849L70.9685 48.7095ZM71.2361 38.4287C71.2361 41.4378 71.1476 44.8561 70.9695 48.6863L74.9651 48.8722C75.1455 44.9955 75.2361 41.5134 75.2361 38.4287H71.2361ZM69.3448 19.213C70.5931 24.2923 71.2361 30.6842 71.2361 38.4287H75.2361C75.2361 30.4904 74.5798 23.7537 73.2292 18.2583L69.3448 19.213ZM62.8857 8.36471C65.9796 10.7145 68.1688 14.2572 69.3411 19.1974L73.233 18.2739C71.896 12.6395 69.2907 8.20641 65.305 5.17928L62.8857 8.36471ZM48.5695 4.67209C55.1572 4.67209 59.8244 6.00096 62.873 8.35501L65.3177 5.18899C61.2868 2.07649 55.6033 0.672089 48.5695 0.672089V4.67209ZM37.8834 6.57192C41.4421 5.30095 45.0012 4.67209 48.5695 4.67209V0.672089C44.5204 0.672089 40.507 1.38746 36.5381 2.80495L37.8834 6.57192ZM28.0635 11.2181C30.9671 9.38196 34.2305 7.83314 37.8634 6.57894L36.5581 2.79793C32.6632 4.14258 29.1159 5.81992 25.9256 7.83729L28.0635 11.2181ZM21.4221 16.5134C22.9163 14.8577 25.1071 13.0876 28.0635 11.2181L25.9256 7.83729C22.7882 9.82126 20.2742 11.815 18.4526 13.8335L21.4221 16.5134ZM17.9373 11.0063V15.1735H21.9373V11.0063H17.9373ZM17.9385 6.77371C17.9816 8.02363 17.982 9.4147 17.9382 10.9492L21.9365 11.0634C21.9823 9.46141 21.9827 7.98479 21.9362 6.63587L17.9385 6.77371ZM17.8783 4.19739C17.9139 4.58814 17.9373 5.39938 17.9373 6.70479H21.9373C21.9373 5.41135 21.916 4.43027 21.8619 3.83525L17.8783 4.19739ZM17.0948 5.74559C18.0648 5.78776 18.87 5.87072 19.5226 5.98589L20.2177 2.04675C19.3468 1.89307 18.3597 1.7968 17.2685 1.74936L17.0948 5.74559ZM14.2244 5.68026C15.1798 5.68026 16.1353 5.70198 17.0908 5.74541L17.2725 1.74954C16.2565 1.70336 15.2404 1.68026 14.2244 1.68026V5.68026ZM9.76252 5.87416C11.2261 5.74502 12.7133 5.68026 14.2244 5.68026V1.68026C12.5989 1.68026 10.9943 1.74993 9.41095 1.88964L9.76252 5.87416ZM6.08449 6.25796C7.07168 6.09342 8.27587 5.96501 9.70772 5.87823L9.46575 1.88556C7.9403 1.97801 6.59046 2.11845 5.42688 2.31238L6.08449 6.25796ZM7.74752 9.60848C7.75296 7.87292 7.75568 6.09848 7.75568 4.28517H3.75568C3.75568 6.09448 3.75297 7.86474 3.74754 9.59594L7.74752 9.60848ZM21.1522 38.3396L7.56488 8.76721L3.93017 10.4372L17.5175 40.0096L21.1522 38.3396ZM5.21728 70.5871L20.7463 46.1842L17.3717 44.0367L1.84264 68.4396L5.21728 70.5871ZM4.98564 74.6261C5.17611 73.0453 5.35436 71.4059 5.52046 69.708L1.53946 69.3186C1.37606 70.9888 1.20101 72.5985 1.01436 74.1477L4.98564 74.6261ZM6.22142 72.5895C4.79797 72.545 3.83004 72.4799 3.26433 72.4044L2.73567 76.3694C3.5142 76.4732 4.65223 76.5424 6.09648 76.5876L6.22142 72.5895ZM10.0699 72.7918C8.96816 72.7477 7.70654 72.6813 6.28371 72.5924L6.0342 76.5846C7.47906 76.6749 8.77146 76.743 9.91007 76.7886L10.0699 72.7918ZM13.5454 72.7915C12.3849 72.8345 11.2245 72.8345 10.064 72.7915L9.91598 76.7888C11.1751 76.8354 12.4343 76.8354 13.6935 76.7888L13.5454 72.7915ZM16.7112 72.7902H13.6194V76.7902H16.7112V72.7902ZM15.794 63.7967C15.3914 68.4487 15.0354 72.0278 14.7261 74.5464L18.6963 75.0339C19.0143 72.4444 19.3752 68.8095 19.7791 64.1415L15.794 63.7967ZM16.9324 47.389C16.5747 53.6935 16.1951 59.1618 15.794 63.7967L19.7791 64.1415C20.1846 59.4564 20.5667 53.9468 20.9259 47.6155L16.9324 47.389ZM17.0617 45.0068C17.02 45.8107 16.9769 46.6047 16.9324 47.389L20.9259 47.6155C20.9708 46.8248 21.0143 46.0243 21.0563 45.2142L17.0617 45.0068Z" fill="#ED0D0D" mask="url(#path-3-outside-1_136_132)"/>
</svg>
